G04*
G04 #@! TF.GenerationSoftware,Altium Limited,Altium Designer,21.6.4 (81)*
G04*
G04 Layer_Physical_Order=4*
G04 Layer_Color=16711680*
%FSLAX25Y25*%
%MOIN*%
G70*
G04*
G04 #@! TF.SameCoordinates,8412015E-0D8F-45FC-94BC-06A96F844128*
G04*
G04*
G04 #@! TF.FilePolarity,Positive*
G04*
G01*
G75*
%ADD11C,0.01000*%
%ADD16C,0.00800*%
%ADD20R,0.03543X0.02756*%
%ADD22R,0.03150X0.02362*%
%ADD49C,0.00600*%
G04:AMPARAMS|DCode=50|XSize=39.37mil|YSize=23.62mil|CornerRadius=0mil|HoleSize=0mil|Usage=FLASHONLY|Rotation=-45.000|XOffset=0mil|YOffset=0mil|HoleType=Round|Shape=Round|*
%AMOVALD50*
21,1,0.01575,0.02362,0.00000,0.00000,-45.0*
1,1,0.02362,-0.00557,0.00557*
1,1,0.02362,0.00557,-0.00557*
%
%ADD50OVALD50*%

%ADD51R,0.05906X0.05906*%
%ADD52C,0.05906*%
%ADD53C,0.02200*%
G04:AMPARAMS|DCode=60|XSize=90.74mil|YSize=39.37mil|CornerRadius=9.84mil|HoleSize=0mil|Usage=FLASHONLY|Rotation=180.000|XOffset=0mil|YOffset=0mil|HoleType=Round|Shape=RoundedRectangle|*
%AMROUNDEDRECTD60*
21,1,0.09074,0.01968,0,0,180.0*
21,1,0.07106,0.03937,0,0,180.0*
1,1,0.01968,-0.03553,0.00984*
1,1,0.01968,0.03553,0.00984*
1,1,0.01968,0.03553,-0.00984*
1,1,0.01968,-0.03553,-0.00984*
%
%ADD60ROUNDEDRECTD60*%
G04:AMPARAMS|DCode=61|XSize=90mil|YSize=39.37mil|CornerRadius=9.84mil|HoleSize=0mil|Usage=FLASHONLY|Rotation=180.000|XOffset=0mil|YOffset=0mil|HoleType=Round|Shape=RoundedRectangle|*
%AMROUNDEDRECTD61*
21,1,0.09000,0.01968,0,0,180.0*
21,1,0.07032,0.03937,0,0,180.0*
1,1,0.01968,-0.03516,0.00984*
1,1,0.01968,0.03516,0.00984*
1,1,0.01968,0.03516,-0.00984*
1,1,0.01968,-0.03516,-0.00984*
%
%ADD61ROUNDEDRECTD61*%
%ADD62R,0.05000X0.04000*%
%ADD63R,0.05512X0.05906*%
%ADD64R,0.03150X0.03150*%
%ADD65R,0.04724X0.07874*%
%ADD66R,0.03150X0.04724*%
%ADD67R,0.05512X0.08661*%
%ADD68R,0.05512X0.03543*%
%ADD69R,0.02165X0.01772*%
D11*
X10357Y-9495D02*
Y-6272D01*
X12200Y-4430D01*
X8101Y-11284D02*
X15424D01*
X8594Y-11259D02*
X10357Y-9495D01*
D16*
X57104Y-7266D02*
X60173D01*
X37041Y-17786D02*
X47690D01*
X33966Y-17714D02*
X36969D01*
X37041Y-17786D01*
X33286Y-17034D02*
X33966Y-17714D01*
X47761Y-17786D02*
X56026Y-26050D01*
X32934Y-14207D02*
X33286Y-14558D01*
X29711Y-14207D02*
X32934D01*
X33286Y-17034D02*
Y-14558D01*
X56026Y-26050D02*
X65777D01*
X7962Y-27680D02*
X8101Y-27819D01*
X7962Y-27680D02*
Y-21568D01*
X60173Y-7266D02*
X63209Y-10302D01*
D20*
X51714Y-14988D02*
D03*
X56832D02*
D03*
D22*
X15463Y-11323D02*
D03*
Y-5811D02*
D03*
D49*
X69421Y-20880D02*
X73124Y-24583D01*
X51714Y-17471D02*
X55123Y-20880D01*
X69421D01*
X73124Y-29155D02*
Y-24583D01*
X68704Y-14791D02*
X70809D01*
X72182Y-13418D01*
X68488Y-15007D02*
X68704Y-14791D01*
X72182Y-8655D02*
X72182Y-8655D01*
X70565Y-5864D02*
Y-5418D01*
X72182Y-8655D02*
Y-7481D01*
X70565Y-5864D02*
X72182Y-7481D01*
X72182Y-13418D02*
Y-8655D01*
X56832Y-14988D02*
X56851Y-15007D01*
X61991D01*
X51714Y-17471D02*
Y-14988D01*
X51803Y-9615D02*
X53698Y-7720D01*
X49785Y-11634D02*
X51276D01*
X46116Y-14423D02*
X47361Y-13179D01*
X48240D02*
X49785Y-11634D01*
X53698Y-7720D02*
X56650D01*
X51276Y-11634D02*
X51803Y-11107D01*
Y-9615D01*
X47361Y-13179D02*
X48240D01*
X71920Y-16552D02*
X73722Y-14751D01*
X71161Y-31118D02*
X73124Y-29155D01*
X69270Y-31118D02*
X71161D01*
X64169Y-10282D02*
X66737D01*
X61951Y-16170D02*
X62134D01*
X62179Y-16216D01*
X56585Y-14882D02*
X56726Y-15023D01*
X46829Y-4653D02*
X49744D01*
X28832Y-12955D02*
X29382Y-13505D01*
Y-13878D02*
X29711Y-14207D01*
X29382Y-13505D02*
X29568Y-13691D01*
X47690Y-17786D02*
X47761D01*
X43524Y-20089D02*
X43534Y-20100D01*
Y-22721D02*
Y-20100D01*
X23511Y-13691D02*
X29196D01*
X21597Y-15606D02*
X23511Y-13691D01*
X56650Y-7720D02*
X57104Y-7266D01*
X41079Y-6748D02*
X41431Y-6397D01*
X41079Y-10968D02*
Y-6748D01*
X39590Y-10968D02*
X41079D01*
X39030Y-11529D02*
X39590Y-10968D01*
X39030Y-14423D02*
Y-11529D01*
X28832Y-12955D02*
Y-6397D01*
X27879Y-21296D02*
Y-19669D01*
X25126Y-21647D02*
X27528D01*
X27879Y-21296D01*
X49744Y-4653D02*
X49821Y-4730D01*
X46752Y-4576D02*
X46829Y-4653D01*
X49821Y-9848D02*
Y-8261D01*
X52646Y-5436D01*
X63744D01*
X4176Y-1246D02*
X69489D01*
X63744Y-5436D02*
X65355Y-3825D01*
X69489Y-1246D02*
X73722Y-5478D01*
Y-14751D02*
Y-5478D01*
X46686Y-4641D02*
X46752Y-4576D01*
X16609Y-5760D02*
X18318D01*
X18513Y-5565D02*
X22285D01*
X15728Y-6641D02*
X16609Y-5760D01*
X18318D02*
X18513Y-5565D01*
X4093Y-1328D02*
X4176Y-1246D01*
X4093Y-14891D02*
Y-1328D01*
X3644Y-29335D02*
Y-15340D01*
X4093Y-14891D01*
X845Y-1328D02*
X4093D01*
X-28998Y-27674D02*
X-25000Y-31672D01*
X32759D01*
X-26474Y-32872D02*
X40360D01*
X41517Y-31716D02*
X41949D01*
X40360Y-32872D02*
X41517Y-31716D01*
X-33831Y-25516D02*
X-26474Y-32872D01*
X32759Y-31672D02*
X35752Y-28679D01*
X-35274Y-34072D02*
X42421D01*
X43949Y-32544D01*
X-43831Y-25516D02*
X-35274Y-34072D01*
X-23831Y-25516D02*
X-23342D01*
X845Y-1328D01*
X35752Y-28679D02*
Y-26714D01*
X39051Y-23415D01*
X-28998Y-27674D02*
Y-20349D01*
X-33831Y-15516D02*
X-28998Y-20349D01*
X43609Y-29379D02*
X43949Y-29719D01*
X43609Y-29379D02*
Y-26121D01*
X43949Y-32544D02*
Y-29719D01*
X38568Y-27946D02*
Y-27687D01*
X43534Y-22721D01*
X22652Y-5539D02*
X23649Y-4542D01*
D50*
X70565Y-5418D02*
D03*
D51*
X-43831Y-25516D02*
D03*
D52*
Y-15516D02*
D03*
X-33831Y-25516D02*
D03*
Y-15516D02*
D03*
X-23831Y-25516D02*
D03*
Y-15516D02*
D03*
D53*
X12200Y-4430D02*
D03*
X71920Y-16552D02*
D03*
X43524Y-20089D02*
D03*
X25126Y-21647D02*
D03*
X65355Y-3825D02*
D03*
X7176Y-6631D02*
D03*
X46752Y-4576D02*
D03*
X64443Y-32020D02*
D03*
X56246Y-3286D02*
D03*
X3644Y-29335D02*
D03*
X7962Y-21568D02*
D03*
X20142Y-29313D02*
D03*
X12760Y-16566D02*
D03*
X48904Y-31028D02*
D03*
X39051Y-23415D02*
D03*
X43609Y-26121D02*
D03*
X38568Y-27946D02*
D03*
X41949Y-31716D02*
D03*
X69270Y-31118D02*
D03*
D60*
X66451Y-10327D02*
D03*
D61*
Y-26075D02*
D03*
D62*
X29568Y-13691D02*
D03*
Y-18991D02*
D03*
D63*
X8101Y-11284D02*
D03*
Y-27819D02*
D03*
D64*
X68469Y-15367D02*
D03*
X61973D02*
D03*
D65*
X41430Y-6224D02*
D03*
X28832D02*
D03*
D66*
X39030Y-14423D02*
D03*
X46116D02*
D03*
D67*
X21597Y-15606D02*
D03*
D68*
Y-5567D02*
D03*
D69*
X49821Y-9848D02*
D03*
Y-4730D02*
D03*
X57104Y-7289D02*
D03*
M02*
