G04*
G04 #@! TF.GenerationSoftware,Altium Limited,Altium Designer,21.6.4 (81)*
G04*
G04 Layer_Color=8388736*
%FSLAX25Y25*%
%MOIN*%
G70*
G04*
G04 #@! TF.SameCoordinates,8412015E-0D8F-45FC-94BC-06A96F844128*
G04*
G04*
G04 #@! TF.FilePolarity,Negative*
G04*
G01*
G75*
%ADD29O,0.01784X0.04343*%
%ADD30O,0.04343X0.01784*%
%ADD31R,0.13792X0.13792*%
%ADD32C,0.05000*%
%ADD33R,0.04343X0.03556*%
G04:AMPARAMS|DCode=34|XSize=86.74mil|YSize=47.37mil|CornerRadius=13.84mil|HoleSize=0mil|Usage=FLASHONLY|Rotation=180.000|XOffset=0mil|YOffset=0mil|HoleType=Round|Shape=RoundedRectangle|*
%AMROUNDEDRECTD34*
21,1,0.08674,0.01968,0,0,180.0*
21,1,0.05906,0.04737,0,0,180.0*
1,1,0.02769,-0.02953,0.00984*
1,1,0.02769,0.02953,0.00984*
1,1,0.02769,0.02953,-0.00984*
1,1,0.02769,-0.02953,-0.00984*
%
%ADD34ROUNDEDRECTD34*%
%ADD35R,0.03950X0.03162*%
%ADD36R,0.04737X0.05131*%
%ADD37R,0.04343X0.08674*%
G04:AMPARAMS|DCode=38|XSize=17.84mil|YSize=33.59mil|CornerRadius=6.46mil|HoleSize=0mil|Usage=FLASHONLY|Rotation=90.000|XOffset=0mil|YOffset=0mil|HoleType=Round|Shape=RoundedRectangle|*
%AMROUNDEDRECTD38*
21,1,0.01784,0.02067,0,0,90.0*
21,1,0.00492,0.03359,0,0,90.0*
1,1,0.01292,0.01034,0.00246*
1,1,0.01292,0.01034,-0.00246*
1,1,0.01292,-0.01034,-0.00246*
1,1,0.01292,-0.01034,0.00246*
%
%ADD38ROUNDEDRECTD38*%
%ADD39R,0.02178X0.01981*%
%ADD40R,0.01981X0.02178*%
%ADD41R,0.04800X0.05800*%
G04:AMPARAMS|DCode=42|XSize=47.37mil|YSize=31.62mil|CornerRadius=0mil|HoleSize=0mil|Usage=FLASHONLY|Rotation=-45.000|XOffset=0mil|YOffset=0mil|HoleType=Round|Shape=Round|*
%AMOVALD42*
21,1,0.01575,0.03162,0.00000,0.00000,-45.0*
1,1,0.03162,-0.00557,0.00557*
1,1,0.03162,0.00557,-0.00557*
%
%ADD42OVALD42*%

%ADD43R,0.06706X0.06706*%
%ADD44C,0.06706*%
%ADD45C,0.03000*%
G36*
X27276Y-30549D02*
X27465D01*
Y-30555D01*
X27276D01*
Y-30549D01*
D02*
G37*
G36*
Y-27245D02*
X27514D01*
Y-28587D01*
X27276D01*
Y-27245D01*
D02*
G37*
G36*
Y-23920D02*
X27423D01*
Y-26618D01*
X27276D01*
Y-23920D01*
D02*
G37*
D29*
X65914Y-7481D02*
D03*
X63945D02*
D03*
X61977D02*
D03*
X60008D02*
D03*
X58040D02*
D03*
X56071D02*
D03*
X54103D02*
D03*
X52134D02*
D03*
Y-27560D02*
D03*
X54103D02*
D03*
X56071D02*
D03*
X58040D02*
D03*
X60008D02*
D03*
X61977D02*
D03*
X63945D02*
D03*
X65914D02*
D03*
D30*
X48985Y-10631D02*
D03*
Y-12599D02*
D03*
Y-14568D02*
D03*
Y-16536D02*
D03*
Y-18505D02*
D03*
Y-20473D02*
D03*
Y-22442D02*
D03*
Y-24410D02*
D03*
X69064D02*
D03*
Y-22442D02*
D03*
Y-20473D02*
D03*
Y-18505D02*
D03*
Y-16536D02*
D03*
Y-14568D02*
D03*
Y-12599D02*
D03*
Y-10631D02*
D03*
D31*
X59024Y-17521D02*
D03*
D32*
X-6467Y-31302D02*
D03*
X-5880Y-5080D02*
D03*
X-62830Y-4285D02*
D03*
X-62971Y-31791D02*
D03*
D33*
X61369Y-31989D02*
D03*
X56251D02*
D03*
X10226Y-32262D02*
D03*
X5107D02*
D03*
X21039Y-31792D02*
D03*
X15921D02*
D03*
X20535Y-26760D02*
D03*
X15416D02*
D03*
D34*
X7033Y-25675D02*
D03*
Y-9927D02*
D03*
D35*
X22848Y-14342D02*
D03*
Y-8830D02*
D03*
D36*
X41921Y-14402D02*
D03*
Y-7710D02*
D03*
X-9925Y-23975D02*
D03*
Y-17282D02*
D03*
X17109Y-14094D02*
D03*
Y-7401D02*
D03*
D37*
X32429Y-11586D02*
D03*
D38*
X36661Y-6665D02*
D03*
Y-8633D02*
D03*
Y-10602D02*
D03*
Y-12570D02*
D03*
Y-14539D02*
D03*
Y-16507D02*
D03*
X28196D02*
D03*
Y-14539D02*
D03*
Y-12570D02*
D03*
Y-10602D02*
D03*
Y-8633D02*
D03*
Y-6665D02*
D03*
D39*
X34441Y-27839D02*
D03*
Y-25870D02*
D03*
Y-29807D02*
D03*
Y-23902D02*
D03*
X28142Y-29807D02*
D03*
Y-27839D02*
D03*
Y-25870D02*
D03*
Y-23902D02*
D03*
D40*
X32276Y-30004D02*
D03*
X30307D02*
D03*
Y-23705D02*
D03*
X32276D02*
D03*
D41*
X15480Y-21460D02*
D03*
X20780D02*
D03*
D42*
X70565Y-5418D02*
D03*
D43*
X-43831Y-25516D02*
D03*
D44*
Y-15516D02*
D03*
X-33831Y-25516D02*
D03*
Y-15516D02*
D03*
X-23831Y-25516D02*
D03*
Y-15516D02*
D03*
D45*
X12200Y-4430D02*
D03*
X71920Y-16552D02*
D03*
X43524Y-20089D02*
D03*
X25126Y-21647D02*
D03*
X65355Y-3825D02*
D03*
X7176Y-6631D02*
D03*
X46752Y-4576D02*
D03*
X64443Y-32020D02*
D03*
X56246Y-3286D02*
D03*
X3644Y-29335D02*
D03*
X7962Y-21568D02*
D03*
X20142Y-29313D02*
D03*
X12760Y-16566D02*
D03*
X48904Y-31028D02*
D03*
X39051Y-23415D02*
D03*
X43609Y-26121D02*
D03*
X38568Y-27946D02*
D03*
X41949Y-31716D02*
D03*
X69270Y-31118D02*
D03*
M02*
