G04*
G04 #@! TF.GenerationSoftware,Altium Limited,Altium Designer,21.6.4 (81)*
G04*
G04 Layer_Color=65535*
%FSLAX25Y25*%
%MOIN*%
G70*
G04*
G04 #@! TF.SameCoordinates,8412015E-0D8F-45FC-94BC-06A96F844128*
G04*
G04*
G04 #@! TF.FilePolarity,Positive*
G04*
G01*
G75*
%ADD10C,0.00984*%
%ADD11C,0.01000*%
%ADD12C,0.00000*%
%ADD13C,0.00787*%
%ADD14C,0.00500*%
%ADD15C,0.00394*%
%ADD16C,0.00800*%
G36*
X73723Y-7330D02*
X73839Y-7343D01*
X73960Y-7371D01*
X73962Y-7373D01*
X73975Y-7376D01*
X73991Y-7381D01*
X74016Y-7391D01*
X74042Y-7402D01*
X74076Y-7420D01*
X74112Y-7435D01*
X74153Y-7456D01*
X74196Y-7479D01*
X74245Y-7507D01*
X74292Y-7538D01*
X74341Y-7572D01*
X74444Y-7649D01*
X74544Y-7739D01*
X74547Y-7741D01*
X74557Y-7752D01*
X74570Y-7765D01*
X74585Y-7785D01*
X74608Y-7808D01*
X74634Y-7839D01*
X74657Y-7873D01*
X74688Y-7909D01*
X74717Y-7953D01*
X74750Y-7996D01*
X74812Y-8099D01*
X74871Y-8210D01*
X74920Y-8331D01*
Y-8336D01*
X74925Y-8346D01*
X74930Y-8362D01*
X74935Y-8388D01*
X74945Y-8418D01*
X74953Y-8452D01*
X74966Y-8537D01*
X74979Y-8637D01*
Y-8745D01*
X74971Y-8861D01*
X74958Y-8920D01*
X74945Y-8980D01*
Y-8985D01*
X74940Y-8995D01*
X74935Y-9010D01*
X74928Y-9034D01*
X74915Y-9062D01*
X74902Y-9095D01*
X74886Y-9131D01*
X74866Y-9172D01*
X74843Y-9216D01*
X74814Y-9260D01*
X74786Y-9309D01*
X74752Y-9358D01*
X74675Y-9461D01*
X74634Y-9512D01*
X74552Y-9595D01*
X74534Y-9607D01*
X74513Y-9628D01*
X74459Y-9672D01*
X74397Y-9718D01*
X74328Y-9762D01*
X74251Y-9808D01*
X74171Y-9847D01*
X74168Y-9849D01*
X74160Y-9852D01*
X74150Y-9857D01*
X74135Y-9862D01*
X74091Y-9875D01*
X74037Y-9893D01*
X73973Y-9906D01*
X73901Y-9916D01*
X73829Y-9922D01*
X73751Y-9916D01*
X73741D01*
X73715Y-9911D01*
X73677Y-9904D01*
X73623Y-9891D01*
X73561Y-9870D01*
X73486Y-9842D01*
X73406Y-9808D01*
X73324Y-9762D01*
X73481Y-9492D01*
X73484Y-9494D01*
X73489D01*
X73499Y-9499D01*
X73512Y-9507D01*
X73543Y-9523D01*
X73584Y-9543D01*
X73635Y-9564D01*
X73687Y-9579D01*
X73741Y-9597D01*
X73795Y-9605D01*
X73800D01*
X73818Y-9607D01*
X73847Y-9605D01*
X73883D01*
X73926Y-9602D01*
X73978Y-9592D01*
X74032Y-9579D01*
X74088Y-9559D01*
X74096Y-9556D01*
X74114Y-9548D01*
X74145Y-9533D01*
X74186Y-9512D01*
X74230Y-9484D01*
X74279Y-9450D01*
X74330Y-9409D01*
X74382Y-9363D01*
X74410Y-9335D01*
X74420Y-9319D01*
X74436Y-9304D01*
X74472Y-9263D01*
X74508Y-9211D01*
X74549Y-9155D01*
X74583Y-9095D01*
X74611Y-9031D01*
X74613Y-9023D01*
X74624Y-9003D01*
X74632Y-8969D01*
X74644Y-8931D01*
X74655Y-8879D01*
X74668Y-8825D01*
X74673Y-8768D01*
Y-8712D01*
Y-8707D01*
Y-8686D01*
X74668Y-8655D01*
X74662Y-8619D01*
X74655Y-8575D01*
X74642Y-8527D01*
X74626Y-8475D01*
X74608Y-8421D01*
X74606Y-8418D01*
X74603Y-8411D01*
X74598Y-8400D01*
X74590Y-8382D01*
X74580Y-8362D01*
X74567Y-8339D01*
X74554Y-8310D01*
X74536Y-8282D01*
X74495Y-8215D01*
X74444Y-8143D01*
X74387Y-8071D01*
X74318Y-7996D01*
X74315Y-7994D01*
X74307Y-7986D01*
X74294Y-7973D01*
X74276Y-7960D01*
X74256Y-7940D01*
X74227Y-7916D01*
X74199Y-7893D01*
X74168Y-7868D01*
X74094Y-7813D01*
X74014Y-7760D01*
X73926Y-7713D01*
X73836Y-7675D01*
X73834Y-7672D01*
X73823D01*
X73813Y-7667D01*
X73795Y-7664D01*
X73749Y-7654D01*
X73684Y-7646D01*
X73612Y-7641D01*
X73532Y-7644D01*
X73448Y-7656D01*
X73360Y-7677D01*
X73357Y-7680D01*
X73350Y-7682D01*
X73337Y-7685D01*
X73319Y-7693D01*
X73301Y-7700D01*
X73278Y-7713D01*
X73221Y-7739D01*
X73157Y-7778D01*
X73087Y-7821D01*
X73015Y-7873D01*
X72948Y-7935D01*
X72922Y-7960D01*
X72910Y-7978D01*
X72894Y-7994D01*
X72861Y-8038D01*
X72820Y-8089D01*
X72781Y-8148D01*
X72742Y-8218D01*
X72706Y-8290D01*
X72704Y-8292D01*
X72701Y-8300D01*
X72699Y-8308D01*
X72693Y-8323D01*
X72678Y-8364D01*
X72663Y-8411D01*
X72645Y-8465D01*
X72627Y-8524D01*
X72614Y-8583D01*
X72609Y-8640D01*
X72943Y-8974D01*
X73468Y-8449D01*
X73679Y-8660D01*
X72922Y-9417D01*
X72261Y-8756D01*
Y-8750D01*
X72264Y-8743D01*
X72266Y-8725D01*
X72269Y-8702D01*
X72274Y-8676D01*
X72279Y-8645D01*
X72287Y-8606D01*
X72294Y-8568D01*
X72315Y-8480D01*
X72341Y-8382D01*
X72372Y-8285D01*
X72413Y-8187D01*
X72415Y-8184D01*
X72418Y-8177D01*
X72426Y-8164D01*
X72433Y-8146D01*
X72446Y-8122D01*
X72459Y-8094D01*
X72477Y-8066D01*
X72495Y-8038D01*
X72539Y-7968D01*
X72590Y-7891D01*
X72652Y-7813D01*
X72722Y-7739D01*
X72747Y-7713D01*
X72768Y-7698D01*
X72791Y-7675D01*
X72822Y-7649D01*
X72858Y-7623D01*
X72894Y-7592D01*
X72984Y-7533D01*
X73082Y-7471D01*
X73193Y-7417D01*
X73249Y-7391D01*
X73311Y-7371D01*
X73316D01*
X73327Y-7366D01*
X73345Y-7363D01*
X73368Y-7355D01*
X73399Y-7350D01*
X73430Y-7345D01*
X73514Y-7332D01*
X73612Y-7327D01*
X73723Y-7330D01*
D02*
G37*
G36*
X-57549Y-6142D02*
X-57475Y-6152D01*
X-57392Y-6161D01*
X-57290Y-6179D01*
X-57188Y-6198D01*
X-56948Y-6253D01*
X-56698Y-6346D01*
X-56569Y-6401D01*
X-56449Y-6475D01*
X-56319Y-6549D01*
X-56199Y-6642D01*
X-56190Y-6651D01*
X-56162Y-6670D01*
X-56125Y-6707D01*
X-56078Y-6753D01*
X-56023Y-6818D01*
X-55949Y-6892D01*
X-55884Y-6984D01*
X-55810Y-7086D01*
X-55736Y-7197D01*
X-55672Y-7326D01*
X-55607Y-7465D01*
X-55542Y-7613D01*
X-55496Y-7770D01*
X-55459Y-7946D01*
X-55431Y-8131D01*
X-55422Y-8325D01*
Y-8409D01*
X-55431Y-8473D01*
X-55440Y-8547D01*
X-55449Y-8631D01*
X-55459Y-8732D01*
X-55487Y-8834D01*
X-55542Y-9065D01*
X-55625Y-9297D01*
X-55681Y-9417D01*
X-55746Y-9537D01*
X-55820Y-9648D01*
X-55903Y-9759D01*
X-55912Y-9768D01*
X-55921Y-9787D01*
X-55958Y-9805D01*
X-55995Y-9842D01*
X-56042Y-9889D01*
X-56097Y-9935D01*
X-56171Y-9990D01*
X-56254Y-10037D01*
X-56337Y-10092D01*
X-56439Y-10148D01*
X-56661Y-10249D01*
X-56920Y-10333D01*
X-57059Y-10360D01*
X-57207Y-10379D01*
X-57272Y-9556D01*
X-57262D01*
X-57244D01*
X-57216Y-9546D01*
X-57170Y-9537D01*
X-57068Y-9509D01*
X-56929Y-9472D01*
X-56791Y-9417D01*
X-56634Y-9343D01*
X-56495Y-9250D01*
X-56365Y-9139D01*
X-56356Y-9121D01*
X-56319Y-9084D01*
X-56273Y-9010D01*
X-56217Y-8908D01*
X-56162Y-8797D01*
X-56116Y-8658D01*
X-56078Y-8501D01*
X-56069Y-8325D01*
Y-8270D01*
X-56078Y-8233D01*
X-56088Y-8122D01*
X-56125Y-7992D01*
X-56171Y-7835D01*
X-56245Y-7678D01*
X-56356Y-7511D01*
X-56421Y-7437D01*
X-56495Y-7363D01*
X-56504Y-7354D01*
X-56513Y-7345D01*
X-56541Y-7326D01*
X-56569Y-7299D01*
X-56671Y-7234D01*
X-56800Y-7160D01*
X-56957Y-7095D01*
X-57152Y-7030D01*
X-57383Y-6984D01*
X-57503Y-6966D01*
X-57633D01*
X-57642D01*
X-57660D01*
X-57697D01*
X-57744Y-6975D01*
X-57799D01*
X-57864Y-6984D01*
X-58012Y-7012D01*
X-58188Y-7058D01*
X-58363Y-7123D01*
X-58530Y-7215D01*
X-58687Y-7345D01*
X-58696D01*
X-58706Y-7363D01*
X-58752Y-7410D01*
X-58816Y-7493D01*
X-58890Y-7604D01*
X-58955Y-7752D01*
X-59020Y-7918D01*
X-59066Y-8113D01*
X-59085Y-8224D01*
Y-8399D01*
X-59075Y-8473D01*
X-59066Y-8566D01*
X-59039Y-8677D01*
X-59011Y-8788D01*
X-58965Y-8908D01*
X-58909Y-9028D01*
X-58900Y-9038D01*
X-58881Y-9075D01*
X-58835Y-9130D01*
X-58789Y-9204D01*
X-58724Y-9278D01*
X-58641Y-9352D01*
X-58558Y-9435D01*
X-58456Y-9500D01*
X-58558Y-10240D01*
X-61851Y-9620D01*
Y-6438D01*
X-61101D01*
Y-9001D01*
X-59372Y-9343D01*
X-59381Y-9334D01*
X-59390Y-9315D01*
X-59409Y-9287D01*
X-59436Y-9241D01*
X-59464Y-9186D01*
X-59501Y-9121D01*
X-59575Y-8973D01*
X-59649Y-8788D01*
X-59714Y-8584D01*
X-59760Y-8362D01*
X-59778Y-8251D01*
Y-8048D01*
X-59769Y-7992D01*
X-59760Y-7918D01*
X-59751Y-7835D01*
X-59732Y-7743D01*
X-59705Y-7641D01*
X-59640Y-7419D01*
X-59594Y-7299D01*
X-59529Y-7178D01*
X-59464Y-7058D01*
X-59390Y-6938D01*
X-59298Y-6827D01*
X-59196Y-6716D01*
X-59187Y-6707D01*
X-59168Y-6688D01*
X-59140Y-6660D01*
X-59094Y-6623D01*
X-59029Y-6577D01*
X-58965Y-6531D01*
X-58881Y-6475D01*
X-58789Y-6420D01*
X-58687Y-6374D01*
X-58576Y-6318D01*
X-58447Y-6272D01*
X-58317Y-6226D01*
X-58178Y-6189D01*
X-58021Y-6161D01*
X-57864Y-6142D01*
X-57697Y-6133D01*
X-57688D01*
X-57660D01*
X-57614D01*
X-57549Y-6142D01*
D02*
G37*
G36*
X-59936Y-11147D02*
X-59871Y-11156D01*
X-59788Y-11165D01*
X-59695Y-11184D01*
X-59594Y-11202D01*
X-59381Y-11267D01*
X-59270Y-11304D01*
X-59149Y-11359D01*
X-59029Y-11424D01*
X-58918Y-11489D01*
X-58807Y-11572D01*
X-58696Y-11665D01*
X-58687Y-11674D01*
X-58669Y-11692D01*
X-58641Y-11720D01*
X-58613Y-11766D01*
X-58567Y-11822D01*
X-58521Y-11896D01*
X-58465Y-11988D01*
X-58419Y-12090D01*
X-58363Y-12210D01*
X-58308Y-12349D01*
X-58262Y-12497D01*
X-58224Y-12673D01*
X-58188Y-12858D01*
X-58160Y-13061D01*
X-58141Y-13293D01*
X-58132Y-13533D01*
Y-15170D01*
X-55533D01*
Y-16021D01*
X-61934D01*
Y-13394D01*
X-61924Y-13256D01*
X-61915Y-13098D01*
X-61906Y-12932D01*
X-61888Y-12775D01*
X-61869Y-12636D01*
Y-12617D01*
X-61851Y-12553D01*
X-61832Y-12469D01*
X-61804Y-12358D01*
X-61758Y-12238D01*
X-61703Y-12109D01*
X-61638Y-11970D01*
X-61564Y-11850D01*
X-61554Y-11831D01*
X-61527Y-11794D01*
X-61471Y-11739D01*
X-61407Y-11665D01*
X-61323Y-11581D01*
X-61212Y-11498D01*
X-61092Y-11406D01*
X-60953Y-11332D01*
X-60935Y-11322D01*
X-60888Y-11304D01*
X-60805Y-11267D01*
X-60694Y-11230D01*
X-60565Y-11202D01*
X-60417Y-11165D01*
X-60250Y-11147D01*
X-60075Y-11137D01*
X-60065D01*
X-60037D01*
X-60000D01*
X-59936Y-11147D01*
D02*
G37*
G36*
X-61175Y-19009D02*
X-55533D01*
Y-19860D01*
X-61175D01*
Y-21969D01*
X-61934D01*
Y-16900D01*
X-61175D01*
Y-19009D01*
D02*
G37*
G36*
X-58548Y-22589D02*
X-58465D01*
X-58363Y-22598D01*
X-58252Y-22617D01*
X-58132Y-22626D01*
X-57864Y-22672D01*
X-57568Y-22746D01*
X-57272Y-22848D01*
X-57124Y-22903D01*
X-56976Y-22977D01*
X-56967D01*
X-56939Y-22996D01*
X-56902Y-23014D01*
X-56846Y-23051D01*
X-56782Y-23088D01*
X-56717Y-23135D01*
X-56541Y-23264D01*
X-56356Y-23421D01*
X-56162Y-23606D01*
X-55977Y-23828D01*
X-55810Y-24087D01*
Y-24097D01*
X-55792Y-24115D01*
X-55773Y-24161D01*
X-55746Y-24217D01*
X-55718Y-24282D01*
X-55690Y-24356D01*
X-55653Y-24448D01*
X-55616Y-24550D01*
X-55579Y-24661D01*
X-55542Y-24781D01*
X-55487Y-25049D01*
X-55440Y-25336D01*
X-55422Y-25641D01*
Y-25734D01*
X-55431Y-25789D01*
Y-25873D01*
X-55449Y-25965D01*
X-55459Y-26067D01*
X-55477Y-26187D01*
X-55533Y-26437D01*
X-55607Y-26705D01*
X-55718Y-26983D01*
X-55783Y-27121D01*
X-55857Y-27260D01*
X-55866Y-27269D01*
X-55875Y-27288D01*
X-55903Y-27325D01*
X-55940Y-27380D01*
X-55977Y-27436D01*
X-56032Y-27501D01*
X-56171Y-27658D01*
X-56337Y-27834D01*
X-56541Y-28019D01*
X-56772Y-28185D01*
X-57041Y-28342D01*
X-57050D01*
X-57077Y-28361D01*
X-57114Y-28379D01*
X-57170Y-28398D01*
X-57244Y-28426D01*
X-57327Y-28453D01*
X-57420Y-28490D01*
X-57522Y-28518D01*
X-57642Y-28555D01*
X-57762Y-28592D01*
X-58039Y-28648D01*
X-58326Y-28685D01*
X-58641Y-28703D01*
X-58650D01*
X-58659D01*
X-58715D01*
X-58798Y-28694D01*
X-58909D01*
X-59039Y-28675D01*
X-59196Y-28657D01*
X-59372Y-28629D01*
X-59557Y-28592D01*
X-59751Y-28555D01*
X-59954Y-28500D01*
X-60158Y-28426D01*
X-60371Y-28342D01*
X-60574Y-28250D01*
X-60777Y-28130D01*
X-60962Y-28000D01*
X-61138Y-27852D01*
X-61148Y-27843D01*
X-61175Y-27815D01*
X-61222Y-27760D01*
X-61277Y-27695D01*
X-61351Y-27612D01*
X-61425Y-27510D01*
X-61508Y-27390D01*
X-61592Y-27251D01*
X-61675Y-27103D01*
X-61758Y-26936D01*
X-61832Y-26751D01*
X-61906Y-26557D01*
X-61962Y-26344D01*
X-62008Y-26122D01*
X-62036Y-25891D01*
X-62045Y-25641D01*
Y-25558D01*
X-62036Y-25493D01*
Y-25410D01*
X-62026Y-25327D01*
X-62008Y-25216D01*
X-61989Y-25105D01*
X-61943Y-24864D01*
X-61869Y-24587D01*
X-61758Y-24319D01*
X-61693Y-24180D01*
X-61619Y-24041D01*
X-61610Y-24032D01*
X-61601Y-24013D01*
X-61573Y-23976D01*
X-61545Y-23921D01*
X-61499Y-23865D01*
X-61444Y-23791D01*
X-61314Y-23634D01*
X-61148Y-23468D01*
X-60944Y-23283D01*
X-60703Y-23107D01*
X-60435Y-22959D01*
X-60426D01*
X-60398Y-22940D01*
X-60361Y-22922D01*
X-60306Y-22903D01*
X-60232Y-22866D01*
X-60149Y-22839D01*
X-60047Y-22802D01*
X-59936Y-22765D01*
X-59816Y-22737D01*
X-59686Y-22700D01*
X-59538Y-22663D01*
X-59390Y-22635D01*
X-59066Y-22598D01*
X-58715Y-22580D01*
X-58706D01*
X-58669D01*
X-58622D01*
X-58548Y-22589D01*
D02*
G37*
G36*
X-8084Y-8910D02*
X-8090Y-8954D01*
Y-9004D01*
X-8095Y-9121D01*
X-8112Y-9243D01*
X-8129Y-9376D01*
X-8157Y-9498D01*
X-8173Y-9559D01*
X-8190Y-9609D01*
Y-9615D01*
X-8195Y-9620D01*
X-8212Y-9654D01*
X-8234Y-9704D01*
X-8273Y-9765D01*
X-8323Y-9831D01*
X-8390Y-9903D01*
X-8467Y-9970D01*
X-8556Y-10037D01*
X-8562D01*
X-8567Y-10042D01*
X-8601Y-10064D01*
X-8656Y-10086D01*
X-8728Y-10120D01*
X-8811Y-10148D01*
X-8911Y-10175D01*
X-9017Y-10192D01*
X-9133Y-10198D01*
X-9139D01*
X-9150D01*
X-9172D01*
X-9200Y-10192D01*
X-9239D01*
X-9278Y-10186D01*
X-9372Y-10164D01*
X-9483Y-10131D01*
X-9600Y-10086D01*
X-9716Y-10020D01*
X-9772Y-9975D01*
X-9827Y-9931D01*
X-9833Y-9926D01*
X-9838Y-9920D01*
X-9855Y-9903D01*
X-9871Y-9881D01*
X-9894Y-9853D01*
X-9916Y-9820D01*
X-9944Y-9776D01*
X-9977Y-9731D01*
X-10005Y-9676D01*
X-10032Y-9615D01*
X-10066Y-9548D01*
X-10093Y-9476D01*
X-10116Y-9393D01*
X-10143Y-9309D01*
X-10160Y-9215D01*
X-10177Y-9115D01*
X-10182Y-9126D01*
X-10193Y-9149D01*
X-10216Y-9182D01*
X-10238Y-9226D01*
X-10299Y-9326D01*
X-10338Y-9376D01*
X-10371Y-9420D01*
X-10382Y-9432D01*
X-10410Y-9459D01*
X-10454Y-9504D01*
X-10510Y-9559D01*
X-10587Y-9620D01*
X-10671Y-9692D01*
X-10771Y-9765D01*
X-10882Y-9842D01*
X-11925Y-10503D01*
Y-9870D01*
X-11126Y-9365D01*
X-11120D01*
X-11109Y-9354D01*
X-11092Y-9343D01*
X-11070Y-9326D01*
X-11009Y-9287D01*
X-10932Y-9237D01*
X-10848Y-9176D01*
X-10759Y-9115D01*
X-10676Y-9054D01*
X-10599Y-8999D01*
X-10593Y-8993D01*
X-10571Y-8976D01*
X-10537Y-8949D01*
X-10499Y-8910D01*
X-10415Y-8827D01*
X-10377Y-8782D01*
X-10343Y-8738D01*
X-10338Y-8732D01*
X-10332Y-8721D01*
X-10321Y-8699D01*
X-10304Y-8666D01*
X-10288Y-8632D01*
X-10271Y-8594D01*
X-10243Y-8505D01*
Y-8499D01*
X-10238Y-8488D01*
Y-8466D01*
X-10232Y-8438D01*
X-10227Y-8399D01*
Y-8355D01*
X-10221Y-8294D01*
Y-7639D01*
X-11925D01*
Y-7128D01*
X-8084D01*
Y-8910D01*
D02*
G37*
G36*
X-11819Y-10741D02*
X-11770Y-10747D01*
X-11714Y-10758D01*
X-11659Y-10769D01*
X-11597Y-10791D01*
X-11592D01*
X-11586Y-10797D01*
X-11553Y-10808D01*
X-11503Y-10830D01*
X-11437Y-10864D01*
X-11359Y-10908D01*
X-11270Y-10963D01*
X-11181Y-11024D01*
X-11087Y-11102D01*
X-11081D01*
X-11076Y-11113D01*
X-11043Y-11141D01*
X-10993Y-11191D01*
X-10920Y-11263D01*
X-10837Y-11346D01*
X-10737Y-11452D01*
X-10626Y-11580D01*
X-10510Y-11718D01*
X-10504Y-11724D01*
X-10487Y-11746D01*
X-10460Y-11779D01*
X-10426Y-11818D01*
X-10382Y-11868D01*
X-10332Y-11929D01*
X-10277Y-11990D01*
X-10216Y-12062D01*
X-10082Y-12201D01*
X-9949Y-12340D01*
X-9883Y-12406D01*
X-9816Y-12467D01*
X-9755Y-12523D01*
X-9694Y-12567D01*
X-9688D01*
X-9683Y-12578D01*
X-9666Y-12590D01*
X-9644Y-12601D01*
X-9583Y-12640D01*
X-9511Y-12684D01*
X-9422Y-12723D01*
X-9328Y-12762D01*
X-9222Y-12784D01*
X-9122Y-12795D01*
X-9117D01*
X-9111D01*
X-9078Y-12789D01*
X-9022Y-12784D01*
X-8961Y-12767D01*
X-8884Y-12745D01*
X-8806Y-12706D01*
X-8728Y-12656D01*
X-8651Y-12590D01*
X-8639Y-12578D01*
X-8617Y-12551D01*
X-8589Y-12512D01*
X-8551Y-12451D01*
X-8517Y-12373D01*
X-8484Y-12284D01*
X-8462Y-12179D01*
X-8456Y-12062D01*
Y-12029D01*
X-8462Y-12007D01*
X-8467Y-11940D01*
X-8484Y-11863D01*
X-8506Y-11779D01*
X-8545Y-11685D01*
X-8595Y-11596D01*
X-8662Y-11513D01*
X-8673Y-11502D01*
X-8700Y-11480D01*
X-8745Y-11446D01*
X-8811Y-11413D01*
X-8889Y-11374D01*
X-8989Y-11341D01*
X-9100Y-11319D01*
X-9228Y-11308D01*
X-9178Y-10825D01*
X-9172D01*
X-9155Y-10830D01*
X-9128D01*
X-9089Y-10836D01*
X-9044Y-10847D01*
X-8995Y-10858D01*
X-8934Y-10875D01*
X-8873Y-10891D01*
X-8739Y-10936D01*
X-8606Y-11002D01*
X-8540Y-11041D01*
X-8473Y-11091D01*
X-8412Y-11141D01*
X-8356Y-11197D01*
X-8351Y-11202D01*
X-8345Y-11213D01*
X-8329Y-11230D01*
X-8312Y-11258D01*
X-8290Y-11291D01*
X-8268Y-11330D01*
X-8240Y-11374D01*
X-8212Y-11430D01*
X-8184Y-11491D01*
X-8157Y-11557D01*
X-8134Y-11629D01*
X-8112Y-11707D01*
X-8095Y-11790D01*
X-8079Y-11879D01*
X-8073Y-11974D01*
X-8068Y-12073D01*
Y-12129D01*
X-8073Y-12168D01*
X-8079Y-12212D01*
X-8084Y-12268D01*
X-8095Y-12329D01*
X-8107Y-12390D01*
X-8145Y-12534D01*
X-8201Y-12678D01*
X-8234Y-12751D01*
X-8273Y-12823D01*
X-8323Y-12889D01*
X-8378Y-12950D01*
X-8384Y-12956D01*
X-8390Y-12967D01*
X-8412Y-12978D01*
X-8434Y-13000D01*
X-8462Y-13028D01*
X-8501Y-13056D01*
X-8540Y-13083D01*
X-8589Y-13117D01*
X-8695Y-13172D01*
X-8828Y-13228D01*
X-8895Y-13250D01*
X-8972Y-13261D01*
X-9050Y-13272D01*
X-9133Y-13278D01*
X-9144D01*
X-9172D01*
X-9217Y-13272D01*
X-9278Y-13267D01*
X-9344Y-13256D01*
X-9422Y-13233D01*
X-9505Y-13211D01*
X-9588Y-13178D01*
X-9600Y-13172D01*
X-9627Y-13161D01*
X-9672Y-13139D01*
X-9733Y-13106D01*
X-9799Y-13061D01*
X-9883Y-13006D01*
X-9966Y-12939D01*
X-10060Y-12862D01*
X-10071Y-12850D01*
X-10105Y-12823D01*
X-10132Y-12795D01*
X-10160Y-12767D01*
X-10193Y-12734D01*
X-10238Y-12689D01*
X-10282Y-12645D01*
X-10332Y-12590D01*
X-10388Y-12534D01*
X-10449Y-12467D01*
X-10510Y-12395D01*
X-10582Y-12318D01*
X-10654Y-12229D01*
X-10732Y-12140D01*
X-10737Y-12134D01*
X-10748Y-12123D01*
X-10765Y-12101D01*
X-10787Y-12073D01*
X-10820Y-12040D01*
X-10854Y-12001D01*
X-10926Y-11913D01*
X-11009Y-11818D01*
X-11092Y-11729D01*
X-11165Y-11652D01*
X-11192Y-11618D01*
X-11220Y-11591D01*
X-11226Y-11585D01*
X-11242Y-11568D01*
X-11265Y-11546D01*
X-11298Y-11518D01*
X-11337Y-11491D01*
X-11376Y-11457D01*
X-11470Y-11391D01*
Y-13283D01*
X-11925D01*
Y-10736D01*
X-11919D01*
X-11897D01*
X-11864D01*
X-11819Y-10741D01*
D02*
G37*
%LPC*%
G36*
X-60047Y-12007D02*
X-60056D01*
X-60065D01*
X-60111D01*
X-60195Y-12016D01*
X-60287Y-12035D01*
X-60389Y-12053D01*
X-60509Y-12090D01*
X-60620Y-12146D01*
X-60731Y-12210D01*
X-60741Y-12220D01*
X-60777Y-12247D01*
X-60824Y-12294D01*
X-60888Y-12349D01*
X-60953Y-12432D01*
X-61009Y-12525D01*
X-61064Y-12627D01*
X-61111Y-12747D01*
Y-12756D01*
X-61120Y-12793D01*
X-61129Y-12849D01*
X-61148Y-12923D01*
X-61157Y-13034D01*
X-61166Y-13172D01*
X-61175Y-13339D01*
Y-15170D01*
X-58890D01*
Y-13450D01*
X-58900Y-13385D01*
Y-13320D01*
X-58909Y-13246D01*
X-58928Y-13071D01*
X-58965Y-12876D01*
X-59020Y-12682D01*
X-59094Y-12506D01*
X-59140Y-12423D01*
X-59196Y-12358D01*
X-59214Y-12340D01*
X-59251Y-12303D01*
X-59325Y-12247D01*
X-59418Y-12183D01*
X-59538Y-12118D01*
X-59686Y-12062D01*
X-59852Y-12025D01*
X-60047Y-12007D01*
D02*
G37*
G36*
X-58724Y-23449D02*
X-58733D01*
X-58761D01*
X-58798D01*
X-58854D01*
X-58918Y-23458D01*
X-59001D01*
X-59085Y-23468D01*
X-59187Y-23486D01*
X-59399Y-23514D01*
X-59621Y-23560D01*
X-59862Y-23625D01*
X-60084Y-23717D01*
X-60093D01*
X-60111Y-23727D01*
X-60139Y-23745D01*
X-60176Y-23764D01*
X-60287Y-23828D01*
X-60417Y-23912D01*
X-60565Y-24023D01*
X-60713Y-24161D01*
X-60861Y-24319D01*
X-60990Y-24494D01*
Y-24504D01*
X-61009Y-24513D01*
X-61018Y-24541D01*
X-61046Y-24587D01*
X-61064Y-24633D01*
X-61092Y-24689D01*
X-61157Y-24827D01*
X-61212Y-24994D01*
X-61268Y-25188D01*
X-61305Y-25410D01*
X-61314Y-25641D01*
Y-25725D01*
X-61305Y-25789D01*
X-61296Y-25873D01*
X-61277Y-25956D01*
X-61259Y-26058D01*
X-61240Y-26169D01*
X-61166Y-26409D01*
X-61111Y-26539D01*
X-61055Y-26668D01*
X-60981Y-26807D01*
X-60898Y-26936D01*
X-60805Y-27066D01*
X-60694Y-27186D01*
X-60685Y-27195D01*
X-60667Y-27214D01*
X-60629Y-27242D01*
X-60574Y-27288D01*
X-60509Y-27334D01*
X-60426Y-27390D01*
X-60324Y-27445D01*
X-60204Y-27510D01*
X-60075Y-27565D01*
X-59917Y-27630D01*
X-59751Y-27686D01*
X-59566Y-27732D01*
X-59362Y-27778D01*
X-59131Y-27806D01*
X-58890Y-27824D01*
X-58632Y-27834D01*
X-58622D01*
X-58585D01*
X-58521D01*
X-58437Y-27824D01*
X-58345Y-27815D01*
X-58234Y-27797D01*
X-58104Y-27778D01*
X-57975Y-27760D01*
X-57679Y-27686D01*
X-57531Y-27630D01*
X-57374Y-27575D01*
X-57226Y-27501D01*
X-57077Y-27417D01*
X-56939Y-27325D01*
X-56809Y-27214D01*
X-56800Y-27205D01*
X-56782Y-27186D01*
X-56745Y-27149D01*
X-56708Y-27103D01*
X-56652Y-27038D01*
X-56597Y-26964D01*
X-56541Y-26881D01*
X-56476Y-26788D01*
X-56411Y-26677D01*
X-56356Y-26557D01*
X-56300Y-26428D01*
X-56245Y-26289D01*
X-56208Y-26141D01*
X-56171Y-25993D01*
X-56152Y-25826D01*
X-56143Y-25651D01*
Y-25604D01*
X-56152Y-25558D01*
Y-25493D01*
X-56162Y-25410D01*
X-56180Y-25318D01*
X-56199Y-25207D01*
X-56226Y-25096D01*
X-56264Y-24966D01*
X-56310Y-24846D01*
X-56356Y-24707D01*
X-56421Y-24578D01*
X-56504Y-24448D01*
X-56587Y-24319D01*
X-56689Y-24189D01*
X-56809Y-24069D01*
X-56819Y-24060D01*
X-56837Y-24041D01*
X-56883Y-24013D01*
X-56939Y-23967D01*
X-57003Y-23921D01*
X-57087Y-23875D01*
X-57188Y-23819D01*
X-57300Y-23754D01*
X-57429Y-23699D01*
X-57577Y-23643D01*
X-57734Y-23597D01*
X-57901Y-23542D01*
X-58086Y-23505D01*
X-58289Y-23477D01*
X-58502Y-23458D01*
X-58724Y-23449D01*
D02*
G37*
G36*
X-8512Y-7639D02*
X-9783D01*
Y-8782D01*
X-9777Y-8849D01*
X-9772Y-8927D01*
X-9766Y-9015D01*
X-9755Y-9104D01*
X-9738Y-9193D01*
X-9716Y-9271D01*
X-9710Y-9282D01*
X-9699Y-9304D01*
X-9683Y-9337D01*
X-9661Y-9382D01*
X-9627Y-9432D01*
X-9588Y-9482D01*
X-9539Y-9532D01*
X-9483Y-9570D01*
X-9477Y-9576D01*
X-9455Y-9587D01*
X-9422Y-9604D01*
X-9377Y-9626D01*
X-9328Y-9642D01*
X-9272Y-9659D01*
X-9206Y-9670D01*
X-9139Y-9676D01*
X-9133D01*
X-9128D01*
X-9094Y-9670D01*
X-9044Y-9665D01*
X-8978Y-9654D01*
X-8911Y-9626D01*
X-8834Y-9593D01*
X-8761Y-9543D01*
X-8689Y-9476D01*
X-8684Y-9465D01*
X-8662Y-9437D01*
X-8634Y-9393D01*
X-8601Y-9321D01*
X-8567Y-9237D01*
X-8540Y-9126D01*
X-8517Y-8999D01*
X-8512Y-8849D01*
Y-7639D01*
D02*
G37*
%LPD*%
D10*
X67516Y-3521D02*
G03*
X67516Y-3521I-492J0D01*
G01*
X27015Y-3712D02*
G03*
X27015Y-3712I-492J0D01*
G01*
D11*
X39406Y-30153D02*
G03*
X39406Y-30153I-500J0D01*
G01*
X-125Y-32800D02*
Y-3300D01*
X1119Y-4969D02*
X5117D01*
X3118Y-2969D02*
Y-6968D01*
X1588Y-23753D02*
Y-27751D01*
X-48831Y-4517D02*
X-44832D01*
X-46831Y-2517D02*
Y-6516D01*
D12*
X37000Y-30004D02*
G03*
X37000Y-30004I-394J0D01*
G01*
D13*
X69654Y-28151D02*
Y-26477D01*
X67981Y-28151D02*
X69654D01*
X48394D02*
Y-26477D01*
Y-28151D02*
X50068D01*
X48394Y-8564D02*
Y-6891D01*
X50068D01*
X69654Y-8564D02*
Y-6891D01*
X67981D02*
X69654D01*
X53298Y-32974D02*
Y-31005D01*
X40346Y-4363D02*
X43496D01*
X15534Y-4054D02*
X18683D01*
X-18831Y-30516D02*
Y-10516D01*
X-48831Y-30516D02*
Y-10516D01*
X-18831D01*
X-48831Y-30516D02*
X-18831D01*
X-37997D02*
X-18831D01*
D14*
X26961Y-31185D02*
X35622D01*
X26961D02*
Y-22524D01*
X35622D01*
Y-31185D02*
Y-22524D01*
D15*
X23130Y-18976D02*
X24442D01*
X23786Y-18320D02*
Y-19632D01*
D16*
X-14498Y-12517D02*
X-16165Y-13350D01*
X-17831Y-15017D01*
Y-16683D01*
X-16998Y-17516D01*
X-15331D01*
X-14498Y-16683D01*
Y-15849D01*
X-15331Y-15017D01*
X-17831D01*
X-14498Y-22517D02*
X-17831D01*
Y-25016D01*
X-16165Y-24183D01*
X-15331D01*
X-14498Y-25016D01*
Y-26683D01*
X-15331Y-27516D01*
X-16998D01*
X-17831Y-26683D01*
X-50498Y-17516D02*
X-53831D01*
X-50498Y-14183D01*
Y-13350D01*
X-51332Y-12517D01*
X-52998D01*
X-53831Y-13350D01*
X-51831Y-27516D02*
X-50165D01*
X-50998D01*
Y-22517D01*
X-51831Y-23350D01*
M02*
