G04*
G04 #@! TF.GenerationSoftware,Altium Limited,Altium Designer,21.6.4 (81)*
G04*
G04 Layer_Physical_Order=1*
G04 Layer_Color=255*
%FSLAX25Y25*%
%MOIN*%
G70*
G04*
G04 #@! TF.SameCoordinates,8412015E-0D8F-45FC-94BC-06A96F844128*
G04*
G04*
G04 #@! TF.FilePolarity,Positive*
G04*
G01*
G75*
%ADD11C,0.01000*%
%ADD16C,0.00800*%
%ADD17O,0.00984X0.03543*%
%ADD18O,0.03543X0.00984*%
%ADD20R,0.03543X0.02756*%
G04:AMPARAMS|DCode=21|XSize=78.74mil|YSize=39.37mil|CornerRadius=9.84mil|HoleSize=0mil|Usage=FLASHONLY|Rotation=180.000|XOffset=0mil|YOffset=0mil|HoleType=Round|Shape=RoundedRectangle|*
%AMROUNDEDRECTD21*
21,1,0.07874,0.01968,0,0,180.0*
21,1,0.05906,0.03937,0,0,180.0*
1,1,0.01968,-0.02953,0.00984*
1,1,0.01968,0.02953,0.00984*
1,1,0.01968,0.02953,-0.00984*
1,1,0.01968,-0.02953,-0.00984*
%
%ADD21ROUNDEDRECTD21*%
%ADD22R,0.03150X0.02362*%
%ADD23R,0.03937X0.04331*%
G04:AMPARAMS|DCode=25|XSize=9.84mil|YSize=25.59mil|CornerRadius=2.46mil|HoleSize=0mil|Usage=FLASHONLY|Rotation=90.000|XOffset=0mil|YOffset=0mil|HoleType=Round|Shape=RoundedRectangle|*
%AMROUNDEDRECTD25*
21,1,0.00984,0.02067,0,0,90.0*
21,1,0.00492,0.02559,0,0,90.0*
1,1,0.00492,0.01034,0.00246*
1,1,0.00492,0.01034,-0.00246*
1,1,0.00492,-0.01034,-0.00246*
1,1,0.00492,-0.01034,0.00246*
%
%ADD25ROUNDEDRECTD25*%
%ADD26R,0.01378X0.01181*%
%ADD27R,0.01181X0.01378*%
%ADD28R,0.04000X0.05000*%
%ADD46R,0.12992X0.12992*%
%ADD47C,0.04000*%
%ADD48R,0.03543X0.07874*%
%ADD49C,0.00600*%
G04:AMPARAMS|DCode=50|XSize=39.37mil|YSize=23.62mil|CornerRadius=0mil|HoleSize=0mil|Usage=FLASHONLY|Rotation=-45.000|XOffset=0mil|YOffset=0mil|HoleType=Round|Shape=Round|*
%AMOVALD50*
21,1,0.01575,0.02362,0.00000,0.00000,-45.0*
1,1,0.02362,-0.00557,0.00557*
1,1,0.02362,0.00557,-0.00557*
%
%ADD50OVALD50*%

%ADD51R,0.05906X0.05906*%
%ADD52C,0.05906*%
%ADD53C,0.02200*%
D11*
X12952Y-4200D02*
X13023Y-4129D01*
X12430Y-4200D02*
X12952D01*
X29058Y-4129D02*
X30812D01*
X13023D02*
X29058D01*
X12200Y-4430D02*
X12430Y-4200D01*
X28040Y-6657D02*
X28266D01*
X30812Y-4129D02*
X36343D01*
X36921Y-6665D02*
X40876D01*
X36928Y-6657D02*
Y-4714D01*
X36661Y-6665D02*
X36921D01*
X36928Y-6657D01*
X36343Y-4129D02*
X36928Y-4714D01*
X28266Y-4920D02*
X29058Y-4129D01*
X28266Y-6657D02*
Y-4920D01*
X28196Y-6665D02*
X28439D01*
X40876D02*
X41921Y-7710D01*
X69118Y-30966D02*
X69270Y-31118D01*
D16*
X20600Y-27279D02*
X24440D01*
X25000Y-27839D01*
X28142D01*
X20142Y-27738D02*
X20600Y-27279D01*
X20142Y-29251D02*
Y-27738D01*
X12945Y-16763D02*
X13849Y-15859D01*
X-3003Y-16566D02*
X12760D01*
X-3472Y-23070D02*
Y-17034D01*
X-3003Y-16566D01*
X-9569Y-29167D02*
X-3472Y-23070D01*
X-13183Y-31780D02*
X-10570Y-29167D01*
X-9569D01*
X-48956Y-31780D02*
X-13183D01*
X-50460Y-30277D02*
X-48956Y-31780D01*
X-50460Y-30277D02*
Y-22145D01*
X-43831Y-15516D01*
X11054Y-31730D02*
X11725Y-32400D01*
X20570Y-32261D02*
X21039Y-31792D01*
X20570Y-34170D02*
Y-32261D01*
X12118Y-32400D02*
X13149Y-33431D01*
Y-33584D02*
Y-33431D01*
Y-33584D02*
X13735Y-34170D01*
X11725Y-32400D02*
X12118D01*
X13735Y-34170D02*
X20570D01*
X56071Y-7481D02*
X56107Y-7446D01*
Y-3425D02*
X56246Y-3286D01*
X56474Y-3513D01*
X59012D01*
X56107Y-7446D02*
Y-3425D01*
X59012Y-3513D02*
X60008Y-4510D01*
Y-7481D02*
Y-4510D01*
X20057Y-30814D02*
Y-29335D01*
X20120D01*
X20142Y-29313D01*
X7924Y-26018D02*
X7962Y-25980D01*
Y-21568D01*
X54103Y-28889D02*
Y-27560D01*
X13849Y-15859D02*
X15540D01*
X17109Y-14290D01*
X21035Y-31792D02*
X21039D01*
X20057Y-30814D02*
X21035Y-31792D01*
X20780Y-26992D02*
Y-21460D01*
X17109Y-14290D02*
Y-14094D01*
X21039Y-31792D02*
X21516Y-31315D01*
X23425D01*
X24933Y-29807D01*
X28142D01*
X17357Y-14342D02*
X22848D01*
X17109Y-14094D02*
X17357Y-14342D01*
X22848D02*
X22953Y-14446D01*
X28104D02*
X28196Y-14539D01*
X22953Y-14446D02*
X28104D01*
D17*
X65914Y-7481D02*
D03*
X63945D02*
D03*
X61977D02*
D03*
X60008D02*
D03*
X58040D02*
D03*
X56071D02*
D03*
X54103D02*
D03*
X52134D02*
D03*
Y-27560D02*
D03*
X54103D02*
D03*
X56071D02*
D03*
X58040D02*
D03*
X60008D02*
D03*
X61977D02*
D03*
X63945D02*
D03*
X65914D02*
D03*
D18*
X48985Y-10631D02*
D03*
Y-12599D02*
D03*
Y-14568D02*
D03*
Y-16536D02*
D03*
Y-18505D02*
D03*
Y-20473D02*
D03*
Y-22442D02*
D03*
Y-24410D02*
D03*
X69064D02*
D03*
Y-22442D02*
D03*
Y-20473D02*
D03*
Y-18505D02*
D03*
Y-16536D02*
D03*
Y-14568D02*
D03*
Y-12599D02*
D03*
Y-10631D02*
D03*
D20*
X61369Y-31989D02*
D03*
X56251D02*
D03*
X10226Y-32262D02*
D03*
X5107D02*
D03*
X21039Y-31792D02*
D03*
X15921D02*
D03*
X20535Y-26760D02*
D03*
X15416D02*
D03*
D21*
X7033Y-25675D02*
D03*
Y-9927D02*
D03*
D22*
X22848Y-14342D02*
D03*
Y-8830D02*
D03*
D23*
X41921Y-14402D02*
D03*
Y-7710D02*
D03*
X-9925Y-23975D02*
D03*
Y-17282D02*
D03*
X17109Y-14094D02*
D03*
Y-7401D02*
D03*
D25*
X36661Y-6665D02*
D03*
Y-8633D02*
D03*
Y-10602D02*
D03*
Y-12570D02*
D03*
Y-14539D02*
D03*
Y-16507D02*
D03*
X28196D02*
D03*
Y-14539D02*
D03*
Y-12570D02*
D03*
Y-10602D02*
D03*
Y-8633D02*
D03*
Y-6665D02*
D03*
D26*
X34441Y-27839D02*
D03*
Y-25870D02*
D03*
Y-29807D02*
D03*
Y-23902D02*
D03*
X28142Y-29807D02*
D03*
Y-27839D02*
D03*
Y-25870D02*
D03*
Y-23902D02*
D03*
D27*
X32276Y-30004D02*
D03*
X30307D02*
D03*
Y-23705D02*
D03*
X32276D02*
D03*
D28*
X15480Y-21460D02*
D03*
X20780D02*
D03*
D46*
X59024Y-17521D02*
D03*
D47*
X-6467Y-31302D02*
D03*
X-5880Y-5080D02*
D03*
X-62830Y-4285D02*
D03*
X-62971Y-31791D02*
D03*
D48*
X32429Y-11586D02*
D03*
D49*
X48904Y-31028D02*
X52056D01*
X53627Y-29458D01*
X44833Y-23734D02*
X46125Y-22442D01*
X48985D01*
X69071Y-16544D02*
X71912D01*
X71920Y-16552D01*
X69064Y-16536D02*
X69071Y-16544D01*
X66972Y-1825D02*
X70565Y-5418D01*
X62816Y-1825D02*
X66972D01*
X61977Y-2664D02*
X62816Y-1825D01*
X69118Y-30966D02*
Y-24410D01*
X43658Y-20089D02*
X45243Y-18505D01*
X43524Y-20089D02*
X43658D01*
X65363Y-3915D02*
X65914Y-4466D01*
Y-7481D02*
Y-4466D01*
X59024Y-17521D02*
X61977Y-14568D01*
Y-7481D01*
X58040Y-16536D02*
Y-7481D01*
Y-16536D02*
X59024Y-17521D01*
X61118Y-32020D02*
X64443D01*
X61086Y-31989D02*
X61118Y-32020D01*
X60008Y-30911D02*
Y-27560D01*
Y-30911D02*
X61086Y-31989D01*
X61369D01*
X24485Y-10911D02*
X26144Y-12570D01*
X57579Y-30095D02*
X58040Y-29634D01*
Y-27560D01*
X56251Y-31989D02*
X56501D01*
X57579Y-30911D01*
Y-30095D01*
X34441Y-29807D02*
X36538D01*
X38446Y-31716D02*
X41949D01*
X36538Y-29807D02*
X38446Y-31716D01*
X46553Y-4775D02*
X46752Y-4576D01*
X45172Y-7386D02*
X46553Y-6005D01*
X41921Y-14206D02*
X45172Y-10955D01*
Y-7386D01*
X46553Y-6005D02*
Y-4775D01*
X41921Y-14402D02*
Y-14206D01*
X24485Y-10911D02*
X24796D01*
X20422D02*
X24485D01*
X26144Y-12570D02*
X28196D01*
X17109Y-7597D02*
X20422Y-10911D01*
X17109Y-7597D02*
Y-7401D01*
X25105Y-10602D02*
X28196D01*
X24796Y-10911D02*
X25105Y-10602D01*
X8204Y-7226D02*
X16934D01*
X7609Y-6631D02*
X8204Y-7226D01*
X7176Y-6631D02*
X7609D01*
X16934Y-7226D02*
X17109Y-7401D01*
X23817Y-17769D02*
X25126Y-19078D01*
Y-21647D02*
Y-19078D01*
X15984Y-17769D02*
X23817D01*
X15480Y-18273D02*
X15984Y-17769D01*
X15480Y-21460D02*
Y-18273D01*
X25126Y-21647D02*
X25217Y-21556D01*
X29956D02*
X30307Y-21907D01*
Y-23705D02*
Y-21907D01*
X25217Y-21556D02*
X29956D01*
X24854Y-23482D02*
Y-21919D01*
Y-25519D02*
Y-23482D01*
X25274Y-23902D02*
X28142D01*
X24854Y-23482D02*
X25274Y-23902D01*
X24854Y-21919D02*
X25126Y-21647D01*
X24854Y-25519D02*
X25205Y-25870D01*
X28142D01*
X7176Y-9522D02*
X7924Y-10270D01*
X7176Y-9522D02*
Y-6631D01*
X15480Y-26696D02*
Y-21460D01*
X15416Y-26760D02*
X15480Y-26696D01*
X15416Y-26760D02*
X15921Y-27264D01*
Y-31792D02*
Y-27264D01*
X38666Y-11550D02*
Y-10953D01*
Y-12676D02*
Y-11550D01*
X38356Y-8633D02*
X38707Y-8985D01*
Y-11508D02*
Y-8985D01*
X36661Y-8633D02*
X38356D01*
X38666Y-11550D02*
X38707Y-11508D01*
X38559Y-12570D02*
X38666Y-12676D01*
X38911Y-14437D02*
Y-13244D01*
X38666Y-12999D02*
Y-12676D01*
Y-12999D02*
X38911Y-13244D01*
X36661Y-10602D02*
X38314D01*
X38666Y-10953D01*
X38810Y-14539D02*
X41785D01*
X36661D02*
X38810D01*
X36661Y-12570D02*
X38559D01*
X38810Y-14539D02*
X38911Y-14437D01*
X41785Y-14539D02*
X41921Y-14402D01*
X-17845Y-15516D02*
X-16628D01*
X-12599Y-10270D02*
X7924D01*
X-17845Y-15516D02*
X-12599Y-10270D01*
X-23831Y-15516D02*
X-17845D01*
X-16628D02*
X-13092Y-19052D01*
X-9513D01*
X-23831Y-25516D02*
X-9742D01*
X-9513Y-25745D01*
X3950Y-30138D02*
X5542Y-31730D01*
X5936D01*
X74037Y-29180D02*
Y-12757D01*
X68950Y-34267D02*
X74037Y-29180D01*
X71910Y-10631D02*
X74037Y-12757D01*
X32772Y-34267D02*
X68950D01*
X30307Y-31802D02*
X32772Y-34267D01*
X30307Y-31802D02*
Y-30004D01*
X39051Y-23415D02*
X41999D01*
X38618D02*
X39051D01*
X34517Y-25946D02*
X45205D01*
X34441Y-23902D02*
X38131D01*
X38618Y-23415D01*
X41999D02*
X42318Y-23734D01*
X44833D01*
X34441Y-27839D02*
X38461D01*
X45205Y-25946D02*
X46741Y-24410D01*
X38461Y-27839D02*
X38568Y-27946D01*
X41949Y-31716D02*
X46303Y-27362D01*
X51957D01*
X52134Y-27560D02*
Y-27539D01*
X51957Y-27362D02*
X52134Y-27539D01*
X53627Y-29366D02*
X54103Y-28889D01*
X22848Y-8830D02*
X23045Y-8633D01*
X28196D01*
X69064Y-10631D02*
X71910D01*
X61977Y-7481D02*
Y-2664D01*
X46741Y-24410D02*
X48985D01*
X45243Y-18505D02*
X48985D01*
X34441Y-25870D02*
X34517Y-25946D01*
D50*
X70565Y-5418D02*
D03*
D51*
X-43831Y-25516D02*
D03*
D52*
Y-15516D02*
D03*
X-33831Y-25516D02*
D03*
Y-15516D02*
D03*
X-23831Y-25516D02*
D03*
Y-15516D02*
D03*
D53*
X12200Y-4430D02*
D03*
X71920Y-16552D02*
D03*
X43524Y-20089D02*
D03*
X25126Y-21647D02*
D03*
X65355Y-3825D02*
D03*
X7176Y-6631D02*
D03*
X46752Y-4576D02*
D03*
X64443Y-32020D02*
D03*
X56246Y-3286D02*
D03*
X3644Y-29335D02*
D03*
X7962Y-21568D02*
D03*
X20142Y-29313D02*
D03*
X12760Y-16566D02*
D03*
X48904Y-31028D02*
D03*
X39051Y-23415D02*
D03*
X43609Y-26121D02*
D03*
X38568Y-27946D02*
D03*
X41949Y-31716D02*
D03*
X69270Y-31118D02*
D03*
M02*
