G04*
G04 #@! TF.GenerationSoftware,Altium Limited,Altium Designer,21.7.2 (23)*
G04*
G04 Layer_Color=65535*
%FSLAX25Y25*%
%MOIN*%
G70*
G04*
G04 #@! TF.SameCoordinates,2A64222C-FEAE-4017-A15E-55E8C78AA572*
G04*
G04*
G04 #@! TF.FilePolarity,Positive*
G04*
G01*
G75*
%ADD10C,0.00000*%
%ADD11C,0.01000*%
%ADD12C,0.00984*%
%ADD13C,0.00500*%
%ADD14C,0.00787*%
%ADD15C,0.00800*%
%ADD16C,0.00394*%
G36*
X20826Y11390D02*
X20871Y11387D01*
X20928Y11385D01*
X20993Y11376D01*
X21064Y11361D01*
X21134Y11341D01*
X21204Y11309D01*
X21214Y11306D01*
X21237Y11292D01*
X21270Y11272D01*
X21317Y11241D01*
X21368Y11201D01*
X21428Y11149D01*
X21492Y11090D01*
X21553Y11018D01*
X21313Y10818D01*
X21312Y10821D01*
X21307Y10823D01*
X21299Y10831D01*
X21289Y10843D01*
X21266Y10868D01*
X21234Y10902D01*
X21193Y10938D01*
X21150Y10971D01*
X21105Y11006D01*
X21057Y11032D01*
X21052Y11033D01*
X21036Y11042D01*
X21008Y11049D01*
X20975Y11062D01*
X20933Y11074D01*
X20881Y11082D01*
X20825Y11089D01*
X20765Y11089D01*
X20757Y11089D01*
X20738Y11088D01*
X20703Y11084D01*
X20658Y11079D01*
X20607Y11067D01*
X20549Y11052D01*
X20487Y11031D01*
X20423Y11005D01*
X20386Y10988D01*
X20371Y10977D01*
X20352Y10968D01*
X20304Y10942D01*
X20252Y10906D01*
X20194Y10866D01*
X20142Y10822D01*
X20094Y10772D01*
X20089Y10765D01*
X20072Y10749D01*
X20053Y10721D01*
X20028Y10689D01*
X20001Y10644D01*
X19970Y10597D01*
X19946Y10546D01*
X19927Y10493D01*
X19925Y10488D01*
X19918Y10469D01*
X19912Y10438D01*
X19905Y10402D01*
X19897Y10358D01*
X19892Y10308D01*
X19889Y10254D01*
X19888Y10197D01*
X19889Y10194D01*
X19889Y10186D01*
X19890Y10175D01*
X19891Y10155D01*
X19894Y10132D01*
X19898Y10106D01*
X19900Y10075D01*
X19908Y10042D01*
X19924Y9965D01*
X19947Y9880D01*
X19976Y9793D01*
X20016Y9699D01*
X20017Y9696D01*
X20022Y9686D01*
X20030Y9669D01*
X20042Y9651D01*
X20054Y9624D01*
X20073Y9593D01*
X20092Y9562D01*
X20112Y9527D01*
X20164Y9450D01*
X20220Y9372D01*
X20286Y9299D01*
X20358Y9232D01*
X20359Y9229D01*
X20369Y9225D01*
X20377Y9217D01*
X20393Y9208D01*
X20433Y9183D01*
X20491Y9153D01*
X20557Y9124D01*
X20633Y9099D01*
X20717Y9082D01*
X20806Y9071D01*
X20809Y9073D01*
X20818Y9073D01*
X20831Y9071D01*
X20850Y9072D01*
X20870Y9073D01*
X20896Y9077D01*
X20958Y9082D01*
X21032Y9096D01*
X21112Y9114D01*
X21197Y9137D01*
X21281Y9172D01*
X21314Y9188D01*
X21332Y9200D01*
X21352Y9210D01*
X21399Y9239D01*
X21455Y9273D01*
X21511Y9316D01*
X21572Y9368D01*
X21630Y9424D01*
X21633Y9425D01*
X21638Y9431D01*
X21644Y9438D01*
X21654Y9450D01*
X21682Y9484D01*
X21712Y9522D01*
X21748Y9567D01*
X21785Y9616D01*
X21817Y9668D01*
X21842Y9719D01*
X21642Y10148D01*
X20969Y9834D01*
X20843Y10104D01*
X21813Y10557D01*
X22208Y9709D01*
X22206Y9704D01*
X22201Y9698D01*
X22192Y9682D01*
X22182Y9661D01*
X22168Y9638D01*
X22153Y9611D01*
X22133Y9578D01*
X22112Y9544D01*
X22063Y9469D01*
X22005Y9386D01*
X21943Y9304D01*
X21871Y9226D01*
X21867Y9225D01*
X21862Y9218D01*
X21851Y9209D01*
X21837Y9195D01*
X21817Y9177D01*
X21795Y9155D01*
X21769Y9135D01*
X21742Y9114D01*
X21677Y9064D01*
X21602Y9009D01*
X21518Y8958D01*
X21427Y8911D01*
X21394Y8896D01*
X21370Y8888D01*
X21340Y8874D01*
X21302Y8861D01*
X21259Y8849D01*
X21215Y8832D01*
X21110Y8807D01*
X20997Y8783D01*
X20875Y8770D01*
X20812Y8765D01*
X20747Y8767D01*
X20743Y8769D01*
X20731Y8767D01*
X20713Y8771D01*
X20689Y8772D01*
X20658Y8777D01*
X20627Y8783D01*
X20543Y8800D01*
X20449Y8829D01*
X20346Y8869D01*
X20242Y8921D01*
X20138Y8989D01*
X20136Y8992D01*
X20125Y8999D01*
X20112Y9009D01*
X20092Y9027D01*
X20071Y9046D01*
X20046Y9074D01*
X20017Y9101D01*
X19986Y9135D01*
X19952Y9171D01*
X19916Y9215D01*
X19883Y9260D01*
X19849Y9308D01*
X19778Y9415D01*
X19715Y9534D01*
X19713Y9538D01*
X19707Y9551D01*
X19699Y9567D01*
X19692Y9592D01*
X19678Y9622D01*
X19664Y9660D01*
X19654Y9699D01*
X19637Y9743D01*
X19626Y9794D01*
X19609Y9847D01*
X19587Y9965D01*
X19569Y10089D01*
X19564Y10219D01*
X19566Y10224D01*
X19565Y10236D01*
X19565Y10252D01*
X19569Y10278D01*
X19570Y10310D01*
X19574Y10344D01*
X19591Y10429D01*
X19613Y10527D01*
X19650Y10629D01*
X19697Y10735D01*
X19729Y10786D01*
X19762Y10837D01*
X19763Y10842D01*
X19772Y10850D01*
X19782Y10863D01*
X19797Y10882D01*
X19819Y10904D01*
X19842Y10931D01*
X19869Y10960D01*
X19903Y10992D01*
X19940Y11025D01*
X19981Y11056D01*
X20024Y11092D01*
X20073Y11127D01*
X20180Y11197D01*
X20237Y11232D01*
X20342Y11281D01*
X20364Y11287D01*
X20390Y11299D01*
X20456Y11322D01*
X20530Y11344D01*
X20610Y11361D01*
X20698Y11379D01*
X20786Y11388D01*
X20790Y11389D01*
X20798Y11389D01*
X20809Y11390D01*
X20826Y11390D01*
D02*
G37*
G36*
X-13722Y-47071D02*
X-13667D01*
X-13519Y-47099D01*
X-13343Y-47127D01*
X-13158Y-47173D01*
X-12954Y-47238D01*
X-12760Y-47330D01*
X-12751D01*
X-12742Y-47340D01*
X-12714Y-47358D01*
X-12677Y-47377D01*
X-12584Y-47432D01*
X-12464Y-47515D01*
X-12335Y-47617D01*
X-12205Y-47738D01*
X-12076Y-47886D01*
X-11964Y-48043D01*
Y-48052D01*
X-11955Y-48061D01*
X-11937Y-48089D01*
X-11928Y-48126D01*
X-11881Y-48219D01*
X-11835Y-48339D01*
X-11779Y-48496D01*
X-11743Y-48672D01*
X-11705Y-48866D01*
X-11696Y-49079D01*
Y-49125D01*
X-11705Y-49171D01*
Y-49245D01*
X-11715Y-49329D01*
X-11733Y-49421D01*
X-11761Y-49532D01*
X-11789Y-49643D01*
X-11826Y-49773D01*
X-11872Y-49902D01*
X-11928Y-50032D01*
X-12002Y-50170D01*
X-12085Y-50300D01*
X-12177Y-50429D01*
X-12288Y-50559D01*
X-12418Y-50679D01*
X-12427Y-50688D01*
X-12455Y-50707D01*
X-12492Y-50735D01*
X-12557Y-50771D01*
X-12640Y-50827D01*
X-12732Y-50873D01*
X-12853Y-50929D01*
X-12982Y-50984D01*
X-13139Y-51049D01*
X-13315Y-51104D01*
X-13509Y-51151D01*
X-13722Y-51197D01*
X-13962Y-51243D01*
X-14221Y-51271D01*
X-14499Y-51289D01*
X-14795Y-51299D01*
X-14804D01*
X-14814D01*
X-14841D01*
X-14878D01*
X-14971Y-51289D01*
X-15100D01*
X-15248Y-51280D01*
X-15424Y-51262D01*
X-15618Y-51243D01*
X-15831Y-51215D01*
X-16044Y-51178D01*
X-16275Y-51132D01*
X-16497Y-51077D01*
X-16719Y-51012D01*
X-16932Y-50929D01*
X-17135Y-50836D01*
X-17330Y-50735D01*
X-17496Y-50614D01*
X-17505Y-50605D01*
X-17524Y-50586D01*
X-17561Y-50550D01*
X-17616Y-50503D01*
X-17672Y-50448D01*
X-17727Y-50374D01*
X-17801Y-50281D01*
X-17866Y-50189D01*
X-17931Y-50078D01*
X-18005Y-49957D01*
X-18060Y-49819D01*
X-18125Y-49680D01*
X-18171Y-49523D01*
X-18208Y-49356D01*
X-18227Y-49180D01*
X-18236Y-48996D01*
Y-48921D01*
X-18227Y-48866D01*
Y-48801D01*
X-18217Y-48727D01*
X-18180Y-48551D01*
X-18134Y-48357D01*
X-18060Y-48154D01*
X-17949Y-47950D01*
X-17885Y-47848D01*
X-17810Y-47756D01*
X-17801Y-47747D01*
X-17792Y-47738D01*
X-17764Y-47710D01*
X-17737Y-47682D01*
X-17690Y-47636D01*
X-17635Y-47599D01*
X-17505Y-47497D01*
X-17339Y-47395D01*
X-17135Y-47303D01*
X-16904Y-47219D01*
X-16645Y-47164D01*
X-16580Y-47950D01*
X-16590D01*
X-16599Y-47960D01*
X-16654Y-47969D01*
X-16737Y-47997D01*
X-16839Y-48033D01*
X-16950Y-48070D01*
X-17061Y-48126D01*
X-17163Y-48191D01*
X-17246Y-48256D01*
X-17265Y-48274D01*
X-17302Y-48311D01*
X-17357Y-48376D01*
X-17422Y-48468D01*
X-17478Y-48588D01*
X-17533Y-48718D01*
X-17570Y-48875D01*
X-17589Y-49042D01*
Y-49106D01*
X-17579Y-49180D01*
X-17561Y-49264D01*
X-17533Y-49375D01*
X-17496Y-49486D01*
X-17450Y-49597D01*
X-17376Y-49708D01*
X-17367Y-49726D01*
X-17330Y-49773D01*
X-17265Y-49837D01*
X-17172Y-49920D01*
X-17061Y-50013D01*
X-16932Y-50115D01*
X-16765Y-50207D01*
X-16580Y-50300D01*
X-16571D01*
X-16553Y-50309D01*
X-16525Y-50318D01*
X-16488Y-50337D01*
X-16432Y-50346D01*
X-16367Y-50365D01*
X-16294Y-50383D01*
X-16201Y-50402D01*
X-16099Y-50429D01*
X-15988Y-50448D01*
X-15868Y-50466D01*
X-15739Y-50476D01*
X-15590Y-50494D01*
X-15442Y-50503D01*
X-15276Y-50512D01*
X-15110D01*
X-15119Y-50503D01*
X-15174Y-50466D01*
X-15248Y-50402D01*
X-15341Y-50318D01*
X-15452Y-50226D01*
X-15553Y-50106D01*
X-15655Y-49976D01*
X-15748Y-49828D01*
Y-49819D01*
X-15757Y-49810D01*
X-15785Y-49754D01*
X-15812Y-49671D01*
X-15859Y-49560D01*
X-15896Y-49430D01*
X-15924Y-49282D01*
X-15951Y-49125D01*
X-15960Y-48959D01*
Y-48884D01*
X-15951Y-48829D01*
X-15942Y-48755D01*
X-15933Y-48681D01*
X-15914Y-48588D01*
X-15887Y-48496D01*
X-15822Y-48283D01*
X-15776Y-48172D01*
X-15711Y-48061D01*
X-15646Y-47950D01*
X-15572Y-47830D01*
X-15480Y-47719D01*
X-15378Y-47617D01*
X-15369Y-47608D01*
X-15350Y-47589D01*
X-15322Y-47562D01*
X-15276Y-47534D01*
X-15211Y-47488D01*
X-15146Y-47442D01*
X-15063Y-47395D01*
X-14971Y-47340D01*
X-14869Y-47284D01*
X-14758Y-47238D01*
X-14628Y-47192D01*
X-14499Y-47146D01*
X-14360Y-47118D01*
X-14203Y-47090D01*
X-14046Y-47071D01*
X-13879Y-47062D01*
X-13870D01*
X-13851D01*
X-13824D01*
X-13778D01*
X-13722Y-47071D01*
D02*
G37*
G36*
X-16210Y-52030D02*
X-16146Y-52039D01*
X-16062Y-52048D01*
X-15970Y-52066D01*
X-15868Y-52085D01*
X-15655Y-52150D01*
X-15544Y-52187D01*
X-15424Y-52242D01*
X-15304Y-52307D01*
X-15193Y-52372D01*
X-15082Y-52455D01*
X-14971Y-52548D01*
X-14962Y-52557D01*
X-14943Y-52575D01*
X-14915Y-52603D01*
X-14887Y-52649D01*
X-14841Y-52705D01*
X-14795Y-52779D01*
X-14739Y-52871D01*
X-14693Y-52973D01*
X-14638Y-53093D01*
X-14582Y-53232D01*
X-14536Y-53380D01*
X-14499Y-53556D01*
X-14462Y-53741D01*
X-14434Y-53944D01*
X-14416Y-54176D01*
X-14406Y-54416D01*
Y-56053D01*
X-11807D01*
Y-56904D01*
X-18208D01*
Y-54277D01*
X-18199Y-54138D01*
X-18190Y-53981D01*
X-18180Y-53815D01*
X-18162Y-53658D01*
X-18144Y-53519D01*
Y-53500D01*
X-18125Y-53435D01*
X-18106Y-53352D01*
X-18079Y-53241D01*
X-18033Y-53121D01*
X-17977Y-52991D01*
X-17912Y-52853D01*
X-17838Y-52732D01*
X-17829Y-52714D01*
X-17801Y-52677D01*
X-17746Y-52622D01*
X-17681Y-52548D01*
X-17598Y-52464D01*
X-17487Y-52381D01*
X-17367Y-52289D01*
X-17228Y-52214D01*
X-17209Y-52205D01*
X-17163Y-52187D01*
X-17080Y-52150D01*
X-16969Y-52113D01*
X-16839Y-52085D01*
X-16691Y-52048D01*
X-16525Y-52030D01*
X-16349Y-52020D01*
X-16340D01*
X-16312D01*
X-16275D01*
X-16210Y-52030D01*
D02*
G37*
G36*
X-17450Y-59892D02*
X-11807D01*
Y-60743D01*
X-17450D01*
Y-62852D01*
X-18208D01*
Y-57783D01*
X-17450D01*
Y-59892D01*
D02*
G37*
G36*
X-14823Y-63472D02*
X-14739D01*
X-14638Y-63481D01*
X-14527Y-63499D01*
X-14406Y-63509D01*
X-14138Y-63555D01*
X-13842Y-63629D01*
X-13546Y-63731D01*
X-13398Y-63786D01*
X-13250Y-63860D01*
X-13241D01*
X-13213Y-63879D01*
X-13176Y-63897D01*
X-13121Y-63934D01*
X-13056Y-63971D01*
X-12991Y-64017D01*
X-12815Y-64147D01*
X-12630Y-64304D01*
X-12436Y-64489D01*
X-12251Y-64711D01*
X-12085Y-64970D01*
Y-64979D01*
X-12066Y-64998D01*
X-12048Y-65044D01*
X-12020Y-65100D01*
X-11992Y-65165D01*
X-11964Y-65238D01*
X-11928Y-65331D01*
X-11891Y-65433D01*
X-11853Y-65544D01*
X-11817Y-65664D01*
X-11761Y-65932D01*
X-11715Y-66219D01*
X-11696Y-66524D01*
Y-66617D01*
X-11705Y-66672D01*
Y-66755D01*
X-11724Y-66848D01*
X-11733Y-66950D01*
X-11752Y-67070D01*
X-11807Y-67320D01*
X-11881Y-67588D01*
X-11992Y-67866D01*
X-12057Y-68004D01*
X-12131Y-68143D01*
X-12140Y-68152D01*
X-12150Y-68171D01*
X-12177Y-68208D01*
X-12214Y-68263D01*
X-12251Y-68319D01*
X-12307Y-68384D01*
X-12445Y-68541D01*
X-12612Y-68717D01*
X-12815Y-68901D01*
X-13047Y-69068D01*
X-13315Y-69225D01*
X-13324D01*
X-13352Y-69244D01*
X-13389Y-69262D01*
X-13444Y-69281D01*
X-13519Y-69309D01*
X-13602Y-69336D01*
X-13694Y-69373D01*
X-13796Y-69401D01*
X-13916Y-69438D01*
X-14037Y-69475D01*
X-14314Y-69530D01*
X-14601Y-69568D01*
X-14915Y-69586D01*
X-14924D01*
X-14934D01*
X-14989D01*
X-15073Y-69577D01*
X-15183D01*
X-15313Y-69558D01*
X-15470Y-69540D01*
X-15646Y-69512D01*
X-15831Y-69475D01*
X-16025Y-69438D01*
X-16229Y-69383D01*
X-16432Y-69309D01*
X-16645Y-69225D01*
X-16849Y-69133D01*
X-17052Y-69012D01*
X-17237Y-68883D01*
X-17413Y-68735D01*
X-17422Y-68726D01*
X-17450Y-68698D01*
X-17496Y-68642D01*
X-17551Y-68578D01*
X-17626Y-68494D01*
X-17699Y-68393D01*
X-17783Y-68273D01*
X-17866Y-68134D01*
X-17949Y-67986D01*
X-18033Y-67819D01*
X-18106Y-67634D01*
X-18180Y-67440D01*
X-18236Y-67227D01*
X-18282Y-67005D01*
X-18310Y-66774D01*
X-18319Y-66524D01*
Y-66441D01*
X-18310Y-66376D01*
Y-66293D01*
X-18301Y-66210D01*
X-18282Y-66099D01*
X-18264Y-65988D01*
X-18217Y-65747D01*
X-18144Y-65470D01*
X-18033Y-65201D01*
X-17968Y-65063D01*
X-17894Y-64924D01*
X-17885Y-64915D01*
X-17875Y-64896D01*
X-17848Y-64859D01*
X-17820Y-64804D01*
X-17774Y-64748D01*
X-17718Y-64674D01*
X-17589Y-64517D01*
X-17422Y-64350D01*
X-17219Y-64166D01*
X-16978Y-63990D01*
X-16710Y-63842D01*
X-16701D01*
X-16673Y-63823D01*
X-16636Y-63805D01*
X-16580Y-63786D01*
X-16506Y-63749D01*
X-16423Y-63722D01*
X-16321Y-63684D01*
X-16210Y-63648D01*
X-16090Y-63620D01*
X-15960Y-63583D01*
X-15812Y-63546D01*
X-15664Y-63518D01*
X-15341Y-63481D01*
X-14989Y-63463D01*
X-14980D01*
X-14943D01*
X-14897D01*
X-14823Y-63472D01*
D02*
G37*
%LPC*%
G36*
X-13833Y-47867D02*
X-13842D01*
X-13861D01*
X-13898D01*
X-13944Y-47876D01*
X-13999D01*
X-14064Y-47886D01*
X-14212Y-47913D01*
X-14379Y-47950D01*
X-14555Y-48015D01*
X-14721Y-48107D01*
X-14878Y-48228D01*
X-14897Y-48246D01*
X-14943Y-48292D01*
X-14999Y-48366D01*
X-15073Y-48468D01*
X-15146Y-48598D01*
X-15202Y-48746D01*
X-15248Y-48921D01*
X-15267Y-49116D01*
Y-49171D01*
X-15258Y-49208D01*
X-15248Y-49301D01*
X-15221Y-49430D01*
X-15174Y-49569D01*
X-15100Y-49726D01*
X-15008Y-49874D01*
X-14878Y-50022D01*
X-14860Y-50041D01*
X-14814Y-50078D01*
X-14730Y-50143D01*
X-14610Y-50207D01*
X-14471Y-50272D01*
X-14296Y-50337D01*
X-14101Y-50374D01*
X-13879Y-50392D01*
X-13861D01*
X-13814D01*
X-13731Y-50383D01*
X-13630Y-50374D01*
X-13509Y-50355D01*
X-13380Y-50318D01*
X-13241Y-50281D01*
X-13102Y-50226D01*
X-13084Y-50217D01*
X-13037Y-50189D01*
X-12973Y-50152D01*
X-12889Y-50096D01*
X-12806Y-50032D01*
X-12705Y-49948D01*
X-12621Y-49856D01*
X-12538Y-49745D01*
X-12529Y-49726D01*
X-12510Y-49689D01*
X-12473Y-49624D01*
X-12445Y-49541D01*
X-12409Y-49449D01*
X-12371Y-49338D01*
X-12353Y-49218D01*
X-12344Y-49088D01*
Y-49042D01*
X-12353Y-49005D01*
X-12362Y-48912D01*
X-12390Y-48792D01*
X-12445Y-48662D01*
X-12510Y-48515D01*
X-12612Y-48366D01*
X-12667Y-48292D01*
X-12742Y-48228D01*
X-12751D01*
X-12760Y-48209D01*
X-12815Y-48172D01*
X-12908Y-48117D01*
X-13028Y-48043D01*
X-13185Y-47978D01*
X-13371Y-47923D01*
X-13583Y-47886D01*
X-13833Y-47867D01*
D02*
G37*
G36*
X-16321Y-52890D02*
X-16330D01*
X-16340D01*
X-16386D01*
X-16469Y-52899D01*
X-16562Y-52917D01*
X-16664Y-52936D01*
X-16784Y-52973D01*
X-16895Y-53029D01*
X-17006Y-53093D01*
X-17015Y-53102D01*
X-17052Y-53130D01*
X-17098Y-53176D01*
X-17163Y-53232D01*
X-17228Y-53315D01*
X-17283Y-53408D01*
X-17339Y-53509D01*
X-17385Y-53630D01*
Y-53639D01*
X-17394Y-53676D01*
X-17403Y-53732D01*
X-17422Y-53806D01*
X-17431Y-53917D01*
X-17440Y-54055D01*
X-17450Y-54222D01*
Y-56053D01*
X-15165D01*
Y-54333D01*
X-15174Y-54268D01*
Y-54203D01*
X-15183Y-54129D01*
X-15202Y-53953D01*
X-15239Y-53759D01*
X-15294Y-53565D01*
X-15369Y-53389D01*
X-15415Y-53306D01*
X-15470Y-53241D01*
X-15489Y-53223D01*
X-15526Y-53186D01*
X-15600Y-53130D01*
X-15692Y-53066D01*
X-15812Y-53001D01*
X-15960Y-52945D01*
X-16127Y-52908D01*
X-16321Y-52890D01*
D02*
G37*
G36*
X-14999Y-64332D02*
X-15008D01*
X-15035D01*
X-15073D01*
X-15128D01*
X-15193Y-64341D01*
X-15276D01*
X-15359Y-64350D01*
X-15461Y-64369D01*
X-15674Y-64397D01*
X-15896Y-64443D01*
X-16136Y-64508D01*
X-16358Y-64600D01*
X-16367D01*
X-16386Y-64609D01*
X-16414Y-64628D01*
X-16451Y-64647D01*
X-16562Y-64711D01*
X-16691Y-64794D01*
X-16839Y-64906D01*
X-16987Y-65044D01*
X-17135Y-65201D01*
X-17265Y-65377D01*
Y-65386D01*
X-17283Y-65396D01*
X-17292Y-65424D01*
X-17320Y-65470D01*
X-17339Y-65516D01*
X-17367Y-65571D01*
X-17431Y-65710D01*
X-17487Y-65877D01*
X-17542Y-66071D01*
X-17579Y-66293D01*
X-17589Y-66524D01*
Y-66607D01*
X-17579Y-66672D01*
X-17570Y-66755D01*
X-17551Y-66839D01*
X-17533Y-66940D01*
X-17515Y-67052D01*
X-17440Y-67292D01*
X-17385Y-67422D01*
X-17330Y-67551D01*
X-17255Y-67690D01*
X-17172Y-67819D01*
X-17080Y-67949D01*
X-16969Y-68069D01*
X-16960Y-68078D01*
X-16941Y-68097D01*
X-16904Y-68125D01*
X-16849Y-68171D01*
X-16784Y-68217D01*
X-16701Y-68273D01*
X-16599Y-68328D01*
X-16478Y-68393D01*
X-16349Y-68448D01*
X-16192Y-68513D01*
X-16025Y-68568D01*
X-15840Y-68615D01*
X-15637Y-68661D01*
X-15405Y-68689D01*
X-15165Y-68707D01*
X-14906Y-68717D01*
X-14897D01*
X-14860D01*
X-14795D01*
X-14712Y-68707D01*
X-14619Y-68698D01*
X-14508Y-68679D01*
X-14379Y-68661D01*
X-14249Y-68642D01*
X-13953Y-68568D01*
X-13805Y-68513D01*
X-13648Y-68458D01*
X-13500Y-68384D01*
X-13352Y-68300D01*
X-13213Y-68208D01*
X-13084Y-68097D01*
X-13074Y-68088D01*
X-13056Y-68069D01*
X-13019Y-68032D01*
X-12982Y-67986D01*
X-12926Y-67921D01*
X-12871Y-67847D01*
X-12815Y-67764D01*
X-12751Y-67671D01*
X-12686Y-67560D01*
X-12630Y-67440D01*
X-12575Y-67311D01*
X-12519Y-67172D01*
X-12483Y-67024D01*
X-12445Y-66876D01*
X-12427Y-66709D01*
X-12418Y-66533D01*
Y-66487D01*
X-12427Y-66441D01*
Y-66376D01*
X-12436Y-66293D01*
X-12455Y-66201D01*
X-12473Y-66089D01*
X-12501Y-65978D01*
X-12538Y-65849D01*
X-12584Y-65729D01*
X-12630Y-65590D01*
X-12695Y-65460D01*
X-12778Y-65331D01*
X-12862Y-65201D01*
X-12964Y-65072D01*
X-13084Y-64952D01*
X-13093Y-64943D01*
X-13112Y-64924D01*
X-13158Y-64896D01*
X-13213Y-64850D01*
X-13278Y-64804D01*
X-13361Y-64758D01*
X-13463Y-64702D01*
X-13574Y-64637D01*
X-13703Y-64582D01*
X-13851Y-64526D01*
X-14009Y-64480D01*
X-14175Y-64425D01*
X-14360Y-64388D01*
X-14564Y-64360D01*
X-14776Y-64341D01*
X-14999Y-64332D01*
D02*
G37*
%LPD*%
D10*
X10469Y11250D02*
G03*
X10469Y11250I-394J0D01*
G01*
D11*
X-22630Y-23299D02*
G03*
X23299Y-22630I22630J23299D01*
G01*
X28543Y0D02*
G03*
X28543Y0I-28543J0D01*
G01*
X12786Y-47537D02*
X16785D01*
X14786Y-45538D02*
Y-49537D01*
D12*
X23407Y-17664D02*
G03*
X23407Y-17664I-492J0D01*
G01*
X-4949Y12203D02*
G03*
X-4949Y12203I-492J0D01*
G01*
D13*
X8894Y12234D02*
Y20895D01*
X17556D01*
Y12234D02*
Y20895D01*
X8894Y12234D02*
X17556D01*
D14*
X-519Y-9639D02*
X998Y-10346D01*
X-519Y-9639D02*
X188Y-8122D01*
X8466Y9629D02*
X9983Y8922D01*
X7759Y8113D02*
X8466Y9629D01*
X26217Y1352D02*
X27734Y645D01*
X27027Y-872D02*
X27734Y645D01*
X17233Y-17916D02*
X18749Y-18623D01*
X19456Y-17107D01*
X-4369Y18400D02*
Y21550D01*
X-6301Y-4902D02*
Y-1752D01*
X-10222Y-72935D02*
Y-53769D01*
Y-72935D02*
Y-42935D01*
X9778Y-72935D02*
Y-42935D01*
X-10222D02*
X9778D01*
X-10222Y-72935D02*
X9778D01*
D15*
X-7222Y-39935D02*
Y-41601D01*
Y-40768D01*
X-2224D01*
X-3057Y-39935D01*
X2778Y-41267D02*
Y-37935D01*
X6110Y-41267D01*
X6943D01*
X7776Y-40434D01*
Y-38768D01*
X6943Y-37935D01*
X-2224Y-77267D02*
Y-73935D01*
X-4723D01*
X-3890Y-75601D01*
Y-76434D01*
X-4723Y-77267D01*
X-6389D01*
X-7222Y-76434D01*
Y-74768D01*
X-6389Y-73935D01*
X7776Y-77267D02*
X6943Y-75601D01*
X5277Y-73935D01*
X3611D01*
X2778Y-74768D01*
Y-76434D01*
X3611Y-77267D01*
X4444D01*
X5277Y-76434D01*
Y-73935D01*
D16*
X6456Y20736D02*
X7768D01*
X7112Y21392D02*
Y20080D01*
M02*
