G04*
G04 #@! TF.GenerationSoftware,Altium Limited,Altium Designer,21.7.2 (23)*
G04*
G04 Layer_Color=32896*
%FSLAX25Y25*%
%MOIN*%
G70*
G04*
G04 #@! TF.SameCoordinates,2A64222C-FEAE-4017-A15E-55E8C78AA572*
G04*
G04*
G04 #@! TF.FilePolarity,Positive*
G04*
G01*
G75*
%ADD11C,0.01000*%
%ADD12C,0.00984*%
%ADD14C,0.00787*%
%ADD16C,0.00394*%
G36*
X23270Y13013D02*
X23370Y13004D01*
X23460Y12993D01*
X23499Y12987D01*
X23538Y12981D01*
X23568Y12976D01*
X23594Y12972D01*
X23617Y12966D01*
X23635Y12962D01*
X23643Y12962D01*
X23648Y12960D01*
X24043Y12112D01*
X23073Y11660D01*
X22947Y11931D01*
X23620Y12245D01*
X23420Y12673D01*
X23365Y12688D01*
X23305Y12696D01*
X23243Y12699D01*
X23186Y12701D01*
X23137Y12702D01*
X23094Y12702D01*
X23077Y12702D01*
X23069Y12703D01*
X23061Y12703D01*
X23058Y12701D01*
X22978Y12692D01*
X22899Y12679D01*
X22830Y12664D01*
X22768Y12642D01*
X22715Y12626D01*
X22695Y12617D01*
X22674Y12611D01*
X22641Y12595D01*
X22560Y12554D01*
X22487Y12504D01*
X22422Y12453D01*
X22364Y12406D01*
X22320Y12361D01*
X22300Y12344D01*
X22287Y12330D01*
X22274Y12316D01*
X22267Y12304D01*
X22262Y12298D01*
X22258Y12296D01*
X22209Y12221D01*
X22168Y12146D01*
X22138Y12072D01*
X22118Y12002D01*
X22104Y11939D01*
X22097Y11892D01*
X22094Y11874D01*
X22095Y11863D01*
X22092Y11853D01*
X22093Y11850D01*
X22099Y11752D01*
X22112Y11654D01*
X22136Y11560D01*
X22161Y11472D01*
X22175Y11434D01*
X22187Y11400D01*
X22199Y11365D01*
X22211Y11339D01*
X22217Y11317D01*
X22225Y11301D01*
X22229Y11291D01*
X22231Y11287D01*
X22277Y11197D01*
X22326Y11119D01*
X22376Y11046D01*
X22424Y10984D01*
X22445Y10958D01*
X22467Y10936D01*
X22485Y10916D01*
X22500Y10899D01*
X22515Y10886D01*
X22523Y10877D01*
X22529Y10872D01*
X22530Y10869D01*
X22575Y10834D01*
X22618Y10801D01*
X22660Y10773D01*
X22698Y10750D01*
X22730Y10733D01*
X22758Y10718D01*
X22777Y10711D01*
X22782Y10709D01*
X22835Y10690D01*
X22890Y10675D01*
X22945Y10669D01*
X22997Y10661D01*
X23038Y10660D01*
X23072Y10655D01*
X23095Y10658D01*
X23103Y10658D01*
X23173Y10662D01*
X23240Y10674D01*
X23307Y10693D01*
X23368Y10709D01*
X23419Y10729D01*
X23439Y10738D01*
X23457Y10743D01*
X23493Y10760D01*
X23554Y10792D01*
X23611Y10826D01*
X23659Y10861D01*
X23700Y10892D01*
X23734Y10924D01*
X23759Y10948D01*
X23772Y10962D01*
X23777Y10968D01*
X23816Y11015D01*
X23847Y11061D01*
X23874Y11106D01*
X23891Y11146D01*
X23904Y11180D01*
X23916Y11206D01*
X23919Y11224D01*
X23921Y11228D01*
X23932Y11282D01*
X23934Y11339D01*
X23937Y11392D01*
X23935Y11448D01*
X23930Y11494D01*
X23926Y11528D01*
X23923Y11543D01*
X23922Y11554D01*
X23924Y11559D01*
X23922Y11562D01*
X24230Y11617D01*
X24245Y11524D01*
X24249Y11438D01*
X24250Y11358D01*
X24249Y11293D01*
X24242Y11237D01*
X24236Y11198D01*
X24232Y11173D01*
X24229Y11163D01*
X24207Y11089D01*
X24178Y11023D01*
X24143Y10958D01*
X24109Y10902D01*
X24074Y10858D01*
X24047Y10821D01*
X24037Y10808D01*
X24028Y10800D01*
X24023Y10794D01*
X24020Y10792D01*
X23956Y10731D01*
X23887Y10674D01*
X23822Y10624D01*
X23757Y10581D01*
X23697Y10546D01*
X23671Y10533D01*
X23653Y10521D01*
X23547Y10471D01*
X23485Y10450D01*
X23361Y10413D01*
X23304Y10398D01*
X23248Y10389D01*
X23198Y10377D01*
X23149Y10370D01*
X23103Y10365D01*
X23064Y10363D01*
X23028Y10362D01*
X22997Y10360D01*
X22973Y10360D01*
X22956Y10361D01*
X22945Y10359D01*
X22940Y10361D01*
X22880Y10369D01*
X22820Y10377D01*
X22708Y10410D01*
X22607Y10447D01*
X22517Y10493D01*
X22442Y10534D01*
X22413Y10553D01*
X22387Y10573D01*
X22365Y10587D01*
X22352Y10597D01*
X22344Y10605D01*
X22339Y10607D01*
X22242Y10695D01*
X22159Y10788D01*
X22083Y10881D01*
X22053Y10928D01*
X22022Y10969D01*
X21998Y11011D01*
X21975Y11044D01*
X21955Y11079D01*
X21941Y11108D01*
X21927Y11130D01*
X21919Y11146D01*
X21913Y11159D01*
X21912Y11163D01*
X21861Y11288D01*
X21824Y11411D01*
X21809Y11468D01*
X21796Y11523D01*
X21786Y11578D01*
X21779Y11627D01*
X21774Y11673D01*
X21772Y11712D01*
X21766Y11750D01*
X21766Y11777D01*
X21765Y11805D01*
X21765Y11821D01*
X21767Y11834D01*
X21766Y11838D01*
X21780Y11961D01*
X21808Y12074D01*
X21843Y12179D01*
X21881Y12269D01*
X21923Y12345D01*
X21938Y12372D01*
X21953Y12399D01*
X21969Y12418D01*
X21977Y12434D01*
X21986Y12442D01*
X21987Y12447D01*
X22028Y12498D01*
X22071Y12542D01*
X22160Y12628D01*
X22252Y12699D01*
X22338Y12763D01*
X22379Y12787D01*
X22416Y12812D01*
X22451Y12832D01*
X22480Y12846D01*
X22502Y12860D01*
X22535Y12875D01*
X22629Y12915D01*
X22722Y12946D01*
X22813Y12968D01*
X22893Y12986D01*
X22926Y12993D01*
X22958Y13000D01*
X22989Y13003D01*
X23016Y13007D01*
X23035Y13008D01*
X23050Y13011D01*
X23058Y13011D01*
X23061Y13012D01*
X23167Y13017D01*
X23270Y13013D01*
D02*
G37*
G36*
X4459Y1250D02*
X5829D01*
Y674D01*
X4459D01*
Y-711D01*
X3875D01*
Y674D01*
X2505D01*
Y1250D01*
X3875D01*
Y2620D01*
X4459D01*
Y1250D01*
D02*
G37*
D11*
X11512Y6008D02*
G03*
X11512Y6008I-492J0D01*
G01*
X9628Y2668D02*
X11438D01*
X21808Y-7702D01*
X10185Y-19325D02*
X21808Y-7702D01*
X-1020Y-8120D02*
X10185Y-19325D01*
X-1020Y-8120D02*
Y-7981D01*
X9628Y2668D01*
D12*
X3674Y-21801D02*
G03*
X3674Y-21801I-492J0D01*
G01*
D14*
X1902Y-19045D02*
Y-15502D01*
X32D02*
X1902D01*
X-6759Y-19045D02*
Y-15502D01*
X-4889D01*
X19543Y-3926D02*
X20935Y-2534D01*
D16*
X4189Y25438D02*
X5117Y24509D01*
X-20450Y-882D02*
Y430D01*
X-19794Y-226D02*
X-21106D01*
M02*
