G04*
G04 #@! TF.GenerationSoftware,Altium Limited,Altium Designer,21.7.2 (23)*
G04*
G04 Layer_Physical_Order=4*
G04 Layer_Color=16711680*
%FSLAX25Y25*%
%MOIN*%
G70*
G04*
G04 #@! TF.SameCoordinates,2A64222C-FEAE-4017-A15E-55E8C78AA572*
G04*
G04*
G04 #@! TF.FilePolarity,Positive*
G04*
G01*
G75*
%ADD26R,0.02362X0.03150*%
%ADD44C,0.00787*%
%ADD45C,0.00600*%
%ADD49C,0.04000*%
%ADD50C,0.03937*%
%ADD51C,0.06000*%
%ADD52C,0.05906*%
%ADD53R,0.05906X0.05906*%
%ADD54C,0.01575*%
%ADD63R,0.02756X0.03543*%
%ADD64R,0.01772X0.02165*%
%ADD65R,0.03150X0.03150*%
%ADD66P,0.07238X4X270.0*%
G04:AMPARAMS|DCode=67|XSize=27.56mil|YSize=35.43mil|CornerRadius=0mil|HoleSize=0mil|Usage=FLASHONLY|Rotation=45.000|XOffset=0mil|YOffset=0mil|HoleType=Round|Shape=Rectangle|*
%AMROTATEDRECTD67*
4,1,4,0.00278,-0.02227,-0.02227,0.00278,-0.00278,0.02227,0.02227,-0.00278,0.00278,-0.02227,0.0*
%
%ADD67ROTATEDRECTD67*%

%ADD68R,0.05512X0.03543*%
%ADD69R,0.05512X0.08661*%
%ADD70R,0.04724X0.07874*%
%ADD71R,0.05000X0.04000*%
D26*
X-13383Y2165D02*
D03*
X-7871D02*
D03*
D44*
X14825Y-29941D02*
D03*
X12920Y-30758D02*
D03*
X-19841Y-27082D02*
D03*
X18931Y-27488D02*
D03*
X17369Y-28502D02*
D03*
X11164Y-31424D02*
D03*
X9289Y-32029D02*
D03*
X6880Y-32681D02*
D03*
X3391Y-33168D02*
D03*
X-630Y-33373D02*
D03*
X-2476Y-33311D02*
D03*
X-5614Y-32925D02*
D03*
X-7955Y-32446D02*
D03*
X-10589Y-31674D02*
D03*
X-13062Y-30717D02*
D03*
X-15798Y-29516D02*
D03*
X-17877Y-28269D02*
D03*
D45*
X-19728Y16292D02*
G03*
X-19556Y16714I-427J421D01*
G01*
X20527Y6340D02*
G03*
X20468Y5933I528J-284D01*
G01*
X23237Y2823D02*
G03*
X22977Y3202I-587J-125D01*
G01*
X21585Y5850D02*
G03*
X21749Y5538I590J111D01*
G01*
X23286Y2531D02*
G03*
X23273Y2657I-600J0D01*
G01*
X20950Y4517D02*
G03*
X20949Y4517I-326J-503D01*
G01*
X23110Y-15586D02*
G03*
X23286Y-15161I-424J424D01*
G01*
X24282Y2756D02*
G03*
X24108Y3179I-600J0D01*
G01*
X19835Y10273D02*
G03*
X19236Y10748I-587J-125D01*
G01*
X20527Y6340D02*
G03*
X20585Y6751I-529J284D01*
G01*
X15690Y9360D02*
G03*
X16005Y9197I422J427D01*
G01*
X20690Y4892D02*
G03*
X20947Y4519I586J128D01*
G01*
X5296Y-30991D02*
G03*
X4804Y-31539I106J-591D01*
G01*
X4721Y-32704D02*
G03*
X4720Y-32741I599J-40D01*
G01*
X4525Y-36973D02*
G03*
X4683Y-36575I-442J406D01*
G01*
X-369Y-42193D02*
G03*
X-126Y-42033I-199J566D01*
G01*
X4649Y25068D02*
G03*
X4086Y25481I-570J-187D01*
G01*
X5175Y23334D02*
G03*
X5147Y23522I-600J4D01*
G01*
X5073Y15313D02*
G03*
X5073Y15314I-600J8D01*
G01*
X5073Y15308D02*
G03*
X5073Y15313I-600J13D01*
G01*
X4935Y10057D02*
G03*
X4941Y9951I600J-18D01*
G01*
X11827Y-38483D02*
G03*
X11654Y-38901I427J-421D01*
G01*
X16114Y-34196D02*
G03*
X16287Y-33775I-427J421D01*
G01*
X9662Y9520D02*
G03*
X9250Y9694I-423J-426D01*
G01*
X-22508Y13512D02*
X-19728Y16292D01*
X-22735Y8809D02*
X-22508Y9036D01*
Y13512D01*
X-19556Y16714D02*
Y17354D01*
X-5509Y-25378D02*
Y-23752D01*
X-3999Y-34655D02*
Y-26887D01*
X-5509Y-25378D02*
X-3999Y-26887D01*
X-12739Y-43394D02*
X-3999Y-34655D01*
X-12739Y-73054D02*
Y-43394D01*
Y-73054D02*
X-10941Y-74852D01*
Y-75183D02*
X-2947D01*
X-10941D02*
Y-74852D01*
X-10872Y-52285D02*
Y-45682D01*
X10859Y-23950D01*
Y-23810D01*
X-10872Y-52285D02*
X-5222Y-57935D01*
X10859Y-23810D02*
X21476Y-13193D01*
X-2947Y-75183D02*
X4778Y-67935D01*
X20950Y4517D02*
X22977Y3202D01*
X23286Y-15161D02*
Y2531D01*
X20527Y6340D02*
X20527Y6340D01*
X20468Y5933D02*
X20690Y4892D01*
X23237Y2823D02*
X23273Y2657D01*
X20353Y12361D02*
X21584Y5850D01*
X8214Y-30482D02*
X23110Y-15586D01*
X20947Y4519D02*
X20949Y4517D01*
X22398Y-14658D02*
Y1127D01*
X16854Y6671D02*
X22398Y1127D01*
X15018Y8506D02*
X16854Y6671D01*
X14344Y-22711D02*
X22398Y-14658D01*
X14508Y7320D02*
X21476Y352D01*
X10170Y7320D02*
X14508D01*
X21476Y-13193D02*
Y352D01*
X24282Y-4517D02*
Y2756D01*
X21749Y5538D02*
X24108Y3179D01*
X19236Y10748D02*
X19236Y10748D01*
X14306Y10648D02*
X19236Y10748D01*
X19835Y10273D02*
X20585Y6751D01*
X16005Y9197D02*
X18670Y8714D01*
X15636Y9415D02*
X15690Y9360D01*
X5296Y-30991D02*
X5300Y-30991D01*
X4721Y-32702D02*
X4804Y-31539D01*
X4721Y-32704D02*
X4721Y-32702D01*
X4683Y-36572D02*
X4720Y-32741D01*
X4683Y-36575D02*
X4683Y-36572D01*
X-126Y-42033D02*
X4525Y-36973D01*
X24282Y-4517D02*
X27196Y-7431D01*
X-26186Y1531D02*
X-23747Y3970D01*
X-20951D01*
X-26328Y1531D02*
X-26186D01*
X10602Y-2204D02*
Y-1496D01*
X5989Y3118D02*
X6128Y2979D01*
X4942Y9948D02*
X5959Y3312D01*
X5989Y3118D01*
X6128Y2979D02*
X10602Y-1496D01*
X-174Y25537D02*
X2189Y23174D01*
X-1402Y26765D02*
X-174Y25537D01*
X4649Y25068D02*
X4650Y25065D01*
X5175Y23330D02*
X5175Y23334D01*
X5073Y15314D02*
X5175Y23330D01*
X5073Y15313D02*
X5073Y15314D01*
X5073Y15306D02*
X5073Y15308D01*
X4935Y10057D02*
X5073Y15306D01*
X4941Y9951D02*
X4942Y9948D01*
X-174Y25537D02*
X4086Y25481D01*
X4650Y25065D02*
X5147Y23522D01*
X2218Y-3297D02*
Y7374D01*
X1690Y7903D02*
Y15190D01*
Y7903D02*
X2218Y7374D01*
X322Y-5194D02*
X2218Y-3297D01*
X1690Y15190D02*
X2189Y15689D01*
X13467Y9415D02*
X15636D01*
X10264Y8924D02*
X10681Y8506D01*
X15018D01*
X9420Y8071D02*
X10170Y7320D01*
X16170Y-7772D02*
X20024Y-3918D01*
Y-3325D01*
X16287Y-24852D02*
X24567Y-16571D01*
Y-14997D01*
X26255Y-13310D01*
Y-11316D02*
X27196Y-10374D01*
Y-7431D01*
X26255Y-13310D02*
Y-11316D01*
X12715Y10168D02*
X13467Y9415D01*
X11028Y10284D02*
X11144Y10168D01*
X12715D01*
X6033Y-17872D02*
X10565Y-13340D01*
X10602D01*
X6240Y9869D02*
X8038Y8071D01*
X9420D01*
X-1651Y190D02*
X-1376D01*
X-3806Y224D02*
X-2620D01*
X-1651Y190D02*
X-1461Y0D01*
X-2588Y1127D02*
X-1651Y190D01*
X-23163Y-13463D02*
Y-10744D01*
X-18006Y-20124D02*
Y-18727D01*
Y-20124D02*
X-14175Y-23956D01*
X-22023Y-14710D02*
X-18006Y-18727D01*
X-22023Y-14710D02*
Y-14603D01*
X-23163Y-13463D02*
X-22023Y-14603D01*
X-19124Y-5404D02*
X-18773Y-5755D01*
X-23730Y-5404D02*
X-19124D01*
X-18773Y-12800D02*
Y-5755D01*
Y-12800D02*
X-18248Y-13325D01*
X-23840Y-5294D02*
X-23730Y-5404D01*
X-26328Y1489D02*
X-23840Y-999D01*
X-26328Y1489D02*
Y1531D01*
X-23840Y-5294D02*
Y-999D01*
X-5696Y24817D02*
X-3748Y26765D01*
X-18360Y6562D02*
X-17426D01*
X-20951Y3970D02*
X-18360Y6562D01*
X-5222Y-43918D02*
X-369Y-42193D01*
X5300Y-30991D02*
X8214Y-30482D01*
X8214D01*
X-5222Y-47935D02*
Y-43918D01*
X11827Y-38483D02*
X16114Y-34196D01*
X16287Y-33775D02*
Y-24852D01*
X11654Y-50262D02*
Y-38901D01*
X9662Y9520D02*
X10264Y8924D01*
X9245Y9695D02*
X9250Y9694D01*
X8996Y9695D02*
X9245D01*
X-14964Y-4024D02*
Y-1181D01*
X-14264Y1284D02*
X-13383Y2165D01*
X-14264Y-481D02*
Y1284D01*
X-14964Y-1181D02*
X-14264Y-481D01*
X-5161Y-5194D02*
X322D01*
X-5211Y-5244D02*
X-5161Y-5194D01*
X-10391Y-835D02*
Y17102D01*
X-11992Y18149D02*
X-11439D01*
X-10391Y-835D02*
X-7800Y-3427D01*
Y-14166D02*
Y-3427D01*
X-12051Y18090D02*
X-11992Y18149D01*
X-11439D02*
X-10391Y17102D01*
X-7228Y1127D02*
X-2588D01*
X-8019Y1918D02*
X-7228Y1127D01*
X-4992Y-10143D02*
X-2290D01*
X-5211Y-10362D02*
X-4992Y-10143D01*
X-18820Y18090D02*
X-12051D01*
X-7800Y-14166D02*
X-7448Y-14517D01*
X-2429D01*
X-14175Y-23956D02*
X-7089D01*
X-5509Y-23752D02*
X-5158Y-23401D01*
Y-21970D01*
X-6885Y-23752D02*
X-5509D01*
X-7089Y-23956D02*
X-6885Y-23752D01*
X-5158Y-21970D02*
X-4988Y-21801D01*
X130Y-24060D02*
Y-21801D01*
Y-24060D02*
X652Y-24581D01*
X5080Y-24464D02*
X6496D01*
X4963Y-24581D02*
X5080Y-24464D01*
X652Y-24581D02*
X4963D01*
X4264Y-22894D02*
X6043D01*
X7373Y-21564D01*
X6496Y-24464D02*
X7521Y-23438D01*
X8985D02*
X9172Y-23252D01*
X7521Y-23438D02*
X8985D01*
X7373Y-21564D02*
X10447D01*
X-5826Y-4630D02*
X-5211Y-5244D01*
X-2290Y-10143D02*
Y-10137D01*
X-3748Y26765D02*
X-1402D01*
X2189Y22186D02*
Y23174D01*
X10447Y-21564D02*
X16855Y-15156D01*
X6780Y11911D02*
Y14453D01*
Y11911D02*
X8996Y9695D01*
X-15363Y8624D02*
Y9069D01*
X-17426Y6562D02*
X-15363Y8624D01*
X-2715Y9119D02*
Y18090D01*
X-2765Y9069D02*
X-2715Y9119D01*
X-19556Y17354D02*
X-18820Y18090D01*
X-15702Y-13325D02*
X-14964Y-14064D01*
X-18248Y-13325D02*
X-15702D01*
X16855Y-15156D02*
X19915Y-12096D01*
X16170Y-7772D02*
X19915Y-11517D01*
Y-12096D02*
Y-11517D01*
X16170Y-7772D02*
Y-7772D01*
X16855Y-15156D02*
Y-15156D01*
X18225Y-1799D02*
X18497D01*
X20024Y-3325D01*
X10602Y-2204D02*
Y-2184D01*
X14606Y1820D01*
X487Y-12319D02*
X5035Y-7772D01*
X487Y-15521D02*
Y-12319D01*
X5035Y-7772D02*
Y-7772D01*
X10311Y-51605D02*
X11654Y-50262D01*
X10311Y-52403D02*
Y-51605D01*
X4778Y-57935D02*
X10311Y-52403D01*
D49*
X22832Y18474D02*
D03*
X-22249Y18542D02*
D03*
X-15896Y-83889D02*
D03*
X14552Y-83363D02*
D03*
D50*
X24671Y7347D02*
D03*
D51*
X-26351Y2229D02*
D03*
X-2345Y224D02*
D03*
X-22735Y8809D02*
D03*
D52*
X4778Y-67935D02*
D03*
X-5222D02*
D03*
X4778Y-57935D02*
D03*
X-5222D02*
D03*
X4778Y-47935D02*
D03*
D53*
X-5222D02*
D03*
D54*
X-12489Y23575D02*
D03*
X24962Y-12573D02*
D03*
X-5688Y24549D02*
D03*
X20353Y12361D02*
D03*
X18670Y8714D02*
D03*
X3277Y10214D02*
D03*
X14306Y10648D02*
D03*
X11028Y10284D02*
D03*
X25632Y-9237D02*
D03*
X6033Y-17872D02*
D03*
X6240Y9869D02*
D03*
X10588Y23058D02*
D03*
X-22023Y-14710D02*
D03*
X14344Y-22711D02*
D03*
X4264Y-22894D02*
D03*
X-2290Y-10143D02*
D03*
X9172Y-23252D02*
D03*
X6780Y14453D02*
D03*
X487Y-15521D02*
D03*
X-8839Y-21425D02*
D03*
D63*
X-5211Y-10362D02*
D03*
Y-5244D02*
D03*
D64*
X130Y-21801D02*
D03*
X-4988D02*
D03*
X-2429Y-14517D02*
D03*
D65*
X2189Y22186D02*
D03*
Y15689D02*
D03*
D66*
X10602Y-13340D02*
D03*
X5035Y-7772D02*
D03*
X16170D02*
D03*
X10602Y-2204D02*
D03*
D67*
X14532Y2477D02*
D03*
X18151Y-1142D02*
D03*
D68*
X-14964Y-4024D02*
D03*
D69*
Y-14064D02*
D03*
D70*
X-15331Y17623D02*
D03*
X-2732D02*
D03*
X-2688Y8663D02*
D03*
X-15286D02*
D03*
D71*
X-22434Y-9154D02*
D03*
Y-3854D02*
D03*
M02*
