M48
;Layer_Color=9474304
;FILE_FORMAT=2:5
INCH,TZ
;TYPE=PLATED
T1F00S00C0.00787
T2F00S00C0.01968
T3F00S00C0.03543
T4F00S00C0.03937
%
T01
X-19841Y-27082
X-17877Y-28269
X-15798Y-29516
X-13062Y-30717
X-10589Y-31674
X-7955Y-32446
X-5614Y-32925
X-2476Y-33311
X-630Y-33373
X3391Y-33168
X6880Y-32681
X9289Y-32029
X11164Y-31424
X12920Y-30758
X14825Y-29941
X17369Y-28502
X18931Y-27488
X14344Y-22711
X9172Y-23252
X4264Y-22894
X6033Y-17872
X487Y-15521
X-2290Y-10143
X-8839Y-21425
X-22023Y-14710
X-12489Y23575
X-5688Y24549
X10588Y23058
X6780Y14453
X6240Y9869
X3277Y10214
X11028Y10284
X14306Y10648
X18670Y8714
X20353Y12361
X25632Y-9237
X24962Y-12573
T02
X24671Y7347
T03
X-5222Y-67935
X4778
Y-57935
X-5222
Y-47935
X4778
T04
X-22735Y8809
X-2345Y224
M30
