G04*
G04 #@! TF.GenerationSoftware,Altium Limited,Altium Designer,21.7.2 (23)*
G04*
G04 Layer_Physical_Order=1*
G04 Layer_Color=255*
%FSLAX25Y25*%
%MOIN*%
G70*
G04*
G04 #@! TF.SameCoordinates,2A64222C-FEAE-4017-A15E-55E8C78AA572*
G04*
G04*
G04 #@! TF.FilePolarity,Positive*
G04*
G01*
G75*
%ADD17R,0.01181X0.01378*%
%ADD18R,0.01378X0.01181*%
G04:AMPARAMS|DCode=19|XSize=9.84mil|YSize=35.43mil|CornerRadius=0mil|HoleSize=0mil|Usage=FLASHONLY|Rotation=245.000|XOffset=0mil|YOffset=0mil|HoleType=Round|Shape=Round|*
%AMOVALD19*
21,1,0.02559,0.00984,0.00000,0.00000,335.0*
1,1,0.00984,-0.01160,0.00541*
1,1,0.00984,0.01160,-0.00541*
%
%ADD19OVALD19*%

G04:AMPARAMS|DCode=20|XSize=9.84mil|YSize=35.43mil|CornerRadius=0mil|HoleSize=0mil|Usage=FLASHONLY|Rotation=155.000|XOffset=0mil|YOffset=0mil|HoleType=Round|Shape=Round|*
%AMOVALD20*
21,1,0.02559,0.00984,0.00000,0.00000,245.0*
1,1,0.00984,0.00541,0.01160*
1,1,0.00984,-0.00541,-0.01160*
%
%ADD20OVALD20*%

%ADD22R,0.03543X0.02756*%
G04:AMPARAMS|DCode=24|XSize=9.84mil|YSize=25.59mil|CornerRadius=2.46mil|HoleSize=0mil|Usage=FLASHONLY|Rotation=0.000|XOffset=0mil|YOffset=0mil|HoleType=Round|Shape=RoundedRectangle|*
%AMROUNDEDRECTD24*
21,1,0.00984,0.02067,0,0,0.0*
21,1,0.00492,0.02559,0,0,0.0*
1,1,0.00492,0.00246,-0.01034*
1,1,0.00492,-0.00246,-0.01034*
1,1,0.00492,-0.00246,0.01034*
1,1,0.00492,0.00246,0.01034*
%
%ADD24ROUNDEDRECTD24*%
%ADD25R,0.04331X0.03937*%
%ADD26R,0.02362X0.03150*%
%ADD27R,0.04000X0.05000*%
%ADD44C,0.00787*%
%ADD45C,0.00600*%
%ADD46C,0.00600*%
%ADD47P,0.18374X4X200.0*%
%ADD48R,0.07874X0.03543*%
%ADD49C,0.04000*%
%ADD50C,0.03937*%
%ADD51C,0.06000*%
%ADD52C,0.05906*%
%ADD53R,0.05906X0.05906*%
%ADD54C,0.01575*%
D17*
X12241Y13415D02*
D03*
X14209D02*
D03*
X10272D02*
D03*
X16178D02*
D03*
X10272Y19714D02*
D03*
X12241D02*
D03*
X14209D02*
D03*
X16178D02*
D03*
D18*
X10075Y15580D02*
D03*
Y17549D02*
D03*
X16375D02*
D03*
Y15580D02*
D03*
D19*
X19795Y-14984D02*
D03*
X20627Y-13200D02*
D03*
X21459Y-11416D02*
D03*
X22290Y-9632D02*
D03*
X23122Y-7848D02*
D03*
X23954Y-6064D02*
D03*
X24786Y-4280D02*
D03*
X25618Y-2496D02*
D03*
X7421Y5990D02*
D03*
X6589Y4206D02*
D03*
X5757Y2422D02*
D03*
X4925Y638D02*
D03*
X4093Y-1146D02*
D03*
X3261Y-2930D02*
D03*
X2429Y-4714D02*
D03*
X1597Y-6498D02*
D03*
D20*
X24095Y1690D02*
D03*
X22311Y2522D02*
D03*
X20527Y3354D02*
D03*
X18743Y4186D02*
D03*
X16958Y5018D02*
D03*
X15174Y5850D02*
D03*
X13390Y6682D02*
D03*
X11606Y7514D02*
D03*
X3121Y-10684D02*
D03*
X4905Y-11516D02*
D03*
X6689Y-12348D02*
D03*
X8473Y-13180D02*
D03*
X10257Y-14012D02*
D03*
X12041Y-14844D02*
D03*
X13825Y-15676D02*
D03*
X15609Y-16507D02*
D03*
D22*
X-11814Y-13945D02*
D03*
X-6696D02*
D03*
X-8798Y-18124D02*
D03*
X-3680D02*
D03*
X-1416Y15201D02*
D03*
X3702D02*
D03*
X890Y6731D02*
D03*
X-4228D02*
D03*
X-1042Y25504D02*
D03*
X4076D02*
D03*
X-4496Y-22971D02*
D03*
X622D02*
D03*
D24*
X-8394Y2065D02*
D03*
X-10362D02*
D03*
X-12331D02*
D03*
X-14299D02*
D03*
X-16268D02*
D03*
X-18236D02*
D03*
Y10530D02*
D03*
X-16268D02*
D03*
X-14299D02*
D03*
X-12331D02*
D03*
X-10362D02*
D03*
X-8394D02*
D03*
D25*
X-14408Y19975D02*
D03*
X-7715D02*
D03*
X-16341Y-3327D02*
D03*
X-9648D02*
D03*
X1783Y-81237D02*
D03*
X-4910D02*
D03*
D26*
X-15535Y15498D02*
D03*
X-10023D02*
D03*
D27*
X4024Y20560D02*
D03*
X-1276D02*
D03*
D44*
X14825Y-29941D02*
D03*
X12920Y-30758D02*
D03*
X-19841Y-27082D02*
D03*
X18931Y-27488D02*
D03*
X17369Y-28502D02*
D03*
X11164Y-31424D02*
D03*
X9289Y-32029D02*
D03*
X6880Y-32681D02*
D03*
X3391Y-33168D02*
D03*
X-630Y-33373D02*
D03*
X-2476Y-33311D02*
D03*
X-5614Y-32925D02*
D03*
X-7955Y-32446D02*
D03*
X-10589Y-31674D02*
D03*
X-13062Y-30717D02*
D03*
X-15798Y-29516D02*
D03*
X-17877Y-28269D02*
D03*
D45*
X12241Y20941D02*
G03*
X12067Y21363I-600J0D01*
G01*
X22978Y-12165D02*
G03*
X23165Y-12234I298J521D01*
G01*
X22611Y14382D02*
G03*
X22480Y14615I-576J-169D01*
G01*
X17497Y10012D02*
G03*
X17897Y10164I-1J600D01*
G01*
X18554Y8191D02*
G03*
X18492Y8096I470J-374D01*
G01*
X18554Y8191D02*
G03*
X18679Y8640I-470J374D01*
G01*
X-1626Y12726D02*
G03*
X-1567Y12986I-541J260D01*
G01*
X-2544Y11141D02*
G03*
X-2250Y11428I-247J547D01*
G01*
X-4174Y10407D02*
G03*
X-4528Y9860I247J-547D01*
G01*
X-3315Y25364D02*
G03*
X-3517Y25329I0J-600D01*
G01*
X16076Y10285D02*
G03*
X16194Y10728I-477J364D01*
G01*
X16065Y10271D02*
G03*
X15954Y10019I478J-362D01*
G01*
X15789Y9706D02*
G03*
X15954Y10019I-425J424D01*
G01*
X4577Y-14391D02*
G03*
X4714Y-14333I-162J578D01*
G01*
X14475Y-18738D02*
G03*
X14400Y-19023I525J-291D01*
G01*
X18612Y-18383D02*
G03*
X18640Y-18943I544J-254D01*
G01*
X-10137Y18829D02*
G03*
X-10530Y18682I0J-600D01*
G01*
X-11369Y17954D02*
G03*
X-11539Y17709I393J-453D01*
G01*
X-12203Y15887D02*
G03*
X-12239Y15682I564J-206D01*
G01*
X10480Y22951D02*
X10761Y22669D01*
X12067Y21363D01*
X12241Y19714D02*
Y20941D01*
X-13572Y20811D02*
Y22492D01*
X-14408Y19975D02*
X-13572Y20811D01*
Y22492D02*
X-12489Y23575D01*
Y23575D01*
X22618Y-11957D02*
X22978Y-12165D01*
X23165Y-12234D02*
X24962Y-12573D01*
X22478Y14618D02*
X22480Y14615D01*
X22611Y14382D02*
X24671Y7347D01*
X19803Y17549D02*
X22478Y14618D01*
X16064Y10018D02*
X16074Y10018D01*
X17497Y10012D01*
X15954Y10019D02*
X16064Y10018D01*
X17897Y10164D02*
X20353Y12361D01*
X18670Y8714D02*
X18679Y8640D01*
X17499Y6177D02*
X18490Y8093D01*
X18492Y8096D01*
X3069Y10422D02*
X4799Y12152D01*
X2861Y10214D02*
X3277D01*
X2861D02*
X5429Y4747D01*
X-2604Y21270D02*
X-1062D01*
X-1388Y16279D02*
Y18360D01*
X-1276Y20560D01*
X-1416Y15201D02*
X-1388Y16279D01*
X-2250Y11428D02*
X-1626Y12726D01*
X-4174Y10407D02*
X-2544Y11141D01*
X-1567Y14123D02*
X-1416Y15201D01*
X-1567Y12986D02*
Y14123D01*
X-4528Y7809D02*
Y9860D01*
Y7809D02*
X-4228Y6731D01*
X5210Y15866D02*
X7513Y18168D01*
X1046Y3907D02*
Y5653D01*
X890Y6731D02*
X1046Y5653D01*
X-8394Y2065D02*
X-6890D01*
X-7242Y10530D02*
X-6890Y10178D01*
X-8394Y10530D02*
X-7242D01*
X-6890Y2065D02*
Y10178D01*
Y2065D02*
X-3450D01*
X6911Y22265D02*
X8204Y23557D01*
X5310Y21564D02*
X6010Y22265D01*
X6911D01*
X-3517Y25329D02*
X-3517Y25329D01*
X-6139Y24443D02*
X-3421Y25414D01*
X-3315Y25364D02*
X-3315Y25364D01*
X-2513D01*
X-1042Y25504D01*
X-5149Y23815D02*
X-2604Y21270D01*
X4799Y12152D02*
Y15507D01*
X7513Y18168D02*
Y19250D01*
X8645Y-17468D02*
X10257Y-14012D01*
X7932Y-20456D02*
X8568Y-19983D01*
X8645Y-17468D01*
X16958Y5018D02*
X17499Y6177D01*
X16076Y10285D02*
Y10285D01*
X16065Y10271D02*
X16076Y10285D01*
X15954Y10019D02*
Y10019D01*
X13931Y7841D02*
X15789Y9706D01*
X16194Y10728D02*
Y13026D01*
X16178Y13415D02*
X16194Y13026D01*
X13390Y6682D02*
X13931Y7841D01*
X11606Y7514D02*
X12147Y8673D01*
X14306Y10648D01*
X14258Y10697D02*
Y13366D01*
Y10697D02*
X14306Y10648D01*
X14209Y13415D02*
X14258Y13366D01*
X11028Y10284D02*
X12241Y11497D01*
Y13415D01*
X6261Y6531D02*
X7421Y5990D01*
X6240Y7954D02*
X6261Y6531D01*
X5429Y4747D02*
X6589Y4206D01*
X2935Y1745D02*
X3765Y1179D01*
X4925Y638D01*
X487Y-15521D02*
X4577Y-14391D01*
X4714Y-14333D02*
X6148Y-13508D01*
X6689Y-12348D01*
X7932Y-14339D02*
X8473Y-13180D01*
X6033Y-17872D02*
X7932Y-14339D01*
X14345Y-22668D02*
X14400Y-19023D01*
X14344Y-22711D02*
X14345Y-22668D01*
X14475Y-18738D02*
X15068Y-17667D01*
X15609Y-16507D01*
X21459Y-11416D02*
X22618Y-11957D01*
X25792Y-9050D02*
Y-8997D01*
X26087Y-7256D02*
X26392Y-7561D01*
Y-8398D02*
Y-7561D01*
X25114Y-6604D02*
X26087Y-7256D01*
X25792Y-8997D02*
X26392Y-8398D01*
X24744Y-10099D02*
X25792Y-9050D01*
X22758Y-10099D02*
X24744D01*
X22290Y-9632D02*
X22758Y-10099D01*
X18858Y-20803D02*
X19383Y-20211D01*
X18640Y-18943D02*
X19383Y-20211D01*
X18612Y-18383D02*
X20125Y-15138D01*
X19795Y-14984D02*
X20125Y-15138D01*
X19639Y-6224D02*
X21963Y-7307D01*
X13608Y-4497D02*
X19639Y-6224D01*
X21963Y-7307D02*
X23122Y-7848D01*
X13608Y-4497D02*
X17975Y-9792D01*
X20299Y-10875D02*
X21459Y-11416D01*
X17975Y-9792D02*
X20299Y-10875D01*
X23954Y-6064D02*
X25114Y-6604D01*
X-3751Y-22971D02*
Y-20807D01*
X-3680Y-18124D02*
X-3428Y-17872D01*
X6033D01*
X-1885Y-10548D02*
X3108D01*
X4093Y-1146D02*
X5253Y-1687D01*
X7576Y-2770D01*
X13608Y-4497D01*
X1117Y7216D02*
X2110D01*
X39Y7835D02*
X308Y7681D01*
X1117Y7216D01*
X1046Y3907D02*
X2935Y1745D01*
X-3637Y-2071D02*
X-1476Y90D01*
X7461Y12335D02*
X8495Y13369D01*
X6240Y7954D02*
Y9869D01*
X7461Y11089D01*
Y12335D01*
X-1575Y190D02*
X-1376D01*
X-3731Y224D02*
X-2544D01*
X-1476Y90D02*
X-1386Y0D01*
X-1575Y190D02*
X-1476Y90D01*
X-3450Y2065D02*
X-1575Y190D01*
X-1476Y90D02*
X-1376Y190D01*
X-4480Y-2914D02*
X-3637Y-2071D01*
X-4694Y-3104D02*
X-3649Y-2059D01*
X16213Y17839D02*
X16375Y17549D01*
X16213Y17839D02*
Y19325D01*
X16178Y19714D02*
X16213Y19325D01*
X14209Y19714D02*
X16178D01*
X8204Y23557D02*
X10089D01*
X4173Y25747D02*
X7899D01*
X10089Y23557D01*
X10588Y23058D01*
X-7715Y19975D02*
X-6139Y21552D01*
Y24443D01*
X-10137Y18829D02*
X-9581D01*
X-11369Y17954D02*
X-10530Y18682D01*
X-11539Y17706D02*
X-11539Y17709D01*
X-12203Y15887D02*
X-11539Y17706D01*
X-12239Y15682D02*
Y15682D01*
Y11509D02*
Y15682D01*
X-9581Y18829D02*
X-7715Y19975D01*
X-12331Y10530D02*
X-12239Y11509D01*
X-16341Y-9027D02*
Y-3327D01*
X-22023Y-14710D02*
X-16341Y-9027D01*
X-5511Y23815D02*
X-5149D01*
X-6139Y24443D02*
X-5511Y23815D01*
X-4496Y-22971D02*
X-3997Y-23470D01*
Y-34847D02*
Y-23470D01*
X-10015Y-40865D02*
X-3997Y-34847D01*
X-10015Y-58591D02*
Y-40865D01*
X-3399Y-20456D02*
X7932D01*
X5452Y572D02*
X5453Y571D01*
X6204Y143D01*
X15263Y-24399D02*
X18858Y-20803D01*
X622Y-22971D02*
X698Y-22894D01*
X4264D01*
X9172Y-23252D02*
X11510D01*
X12657Y-24399D01*
X6780Y14629D02*
X7885Y15735D01*
X6780Y14453D02*
Y14629D01*
X7885Y15735D02*
Y17045D01*
X-14299Y10530D02*
X-12331D01*
X-14299D02*
X-14107Y10722D01*
X-16071Y15473D02*
Y19913D01*
X-15827Y20156D01*
X-10559Y15473D02*
X-10362Y15276D01*
Y10530D02*
Y15276D01*
X-16268D02*
X-16071Y15473D01*
X-16268Y10530D02*
Y15276D01*
X-12331Y2065D02*
X-10362D01*
X-14299D02*
X-12331D01*
X-16268D02*
X-14299D01*
X-16268Y-3254D02*
Y2065D01*
X-16341Y-3327D02*
X-16268Y-3254D01*
X-9425Y-3104D02*
X-4694D01*
X-9648Y-3327D02*
X-9425Y-3104D01*
X-11463Y-17518D02*
X-9404D01*
X-11814Y-17166D02*
X-11463Y-17518D01*
X-9404D02*
X-8798Y-18124D01*
X-11814Y-17166D02*
Y-13945D01*
X-6696D02*
X-6508Y-14133D01*
X-2875D01*
X-1487Y-15521D01*
X487D01*
X-2290Y-10143D02*
X-1885Y-10548D01*
X12657Y-24399D02*
X15263D01*
X-8839Y-18164D02*
X-8798Y-18124D01*
X-8839Y-21425D02*
Y-18164D01*
X4264Y-23158D02*
X4778Y-23672D01*
Y-47935D02*
Y-23672D01*
X4264Y-23158D02*
Y-22894D01*
X-3751Y-20807D02*
X-3399Y-20456D01*
X-10015Y-58591D02*
X-9029Y-59576D01*
Y-64128D02*
X-5222Y-67935D01*
X-9029Y-64128D02*
Y-59576D01*
X1783Y-81237D02*
Y-70930D01*
X4778Y-67935D01*
X-5222Y-80925D02*
X-4910Y-81237D01*
X-5222Y-80925D02*
Y-67935D01*
X8495Y13369D02*
X10226D01*
X8388Y17549D02*
X10075D01*
X7885Y17045D02*
X8388Y17549D01*
X7513Y19250D02*
X7978Y19714D01*
X10226Y13369D02*
X10272Y13415D01*
X16375Y17549D02*
X19803D01*
X7978Y19714D02*
X10272D01*
D46*
X-3517Y25329D02*
D03*
D47*
X13608Y-4497D02*
D03*
D48*
X-13315Y6297D02*
D03*
D49*
X22832Y18474D02*
D03*
X-23224Y-3781D02*
D03*
X14565Y-83350D02*
D03*
X-15874Y-83899D02*
D03*
D50*
X24671Y7347D02*
D03*
D51*
X-2345Y224D02*
D03*
X-22735Y8809D02*
D03*
D52*
X4778Y-67935D02*
D03*
X-5222D02*
D03*
X4778Y-57935D02*
D03*
X-5222D02*
D03*
X4778Y-47935D02*
D03*
D53*
X-5222D02*
D03*
D54*
X-12489Y23575D02*
D03*
X24962Y-12573D02*
D03*
X-5688Y24549D02*
D03*
X20353Y12361D02*
D03*
X18670Y8714D02*
D03*
X3277Y10214D02*
D03*
X14306Y10648D02*
D03*
X11028Y10284D02*
D03*
X25632Y-9237D02*
D03*
X6033Y-17872D02*
D03*
X6240Y9869D02*
D03*
X10588Y23058D02*
D03*
X-22023Y-14710D02*
D03*
X14344Y-22711D02*
D03*
X4264Y-22894D02*
D03*
X-2290Y-10143D02*
D03*
X9172Y-23252D02*
D03*
X6780Y14453D02*
D03*
X487Y-15521D02*
D03*
X-8839Y-21425D02*
D03*
M02*
