G04*
G04 #@! TF.GenerationSoftware,Altium Limited,Altium Designer,21.7.2 (23)*
G04*
G04 Layer_Color=8388736*
%FSLAX25Y25*%
%MOIN*%
G70*
G04*
G04 #@! TF.SameCoordinates,2A64222C-FEAE-4017-A15E-55E8C78AA572*
G04*
G04*
G04 #@! TF.FilePolarity,Negative*
G04*
G01*
G75*
%ADD28R,0.01981X0.02178*%
%ADD29R,0.02178X0.01981*%
G04:AMPARAMS|DCode=30|XSize=17.84mil|YSize=43.43mil|CornerRadius=0mil|HoleSize=0mil|Usage=FLASHONLY|Rotation=245.000|XOffset=0mil|YOffset=0mil|HoleType=Round|Shape=Round|*
%AMOVALD30*
21,1,0.02559,0.01784,0.00000,0.00000,335.0*
1,1,0.01784,-0.01160,0.00541*
1,1,0.01784,0.01160,-0.00541*
%
%ADD30OVALD30*%

G04:AMPARAMS|DCode=31|XSize=17.84mil|YSize=43.43mil|CornerRadius=0mil|HoleSize=0mil|Usage=FLASHONLY|Rotation=155.000|XOffset=0mil|YOffset=0mil|HoleType=Round|Shape=Round|*
%AMOVALD31*
21,1,0.02559,0.01784,0.00000,0.00000,245.0*
1,1,0.01784,0.00541,0.01160*
1,1,0.01784,-0.00541,-0.01160*
%
%ADD31OVALD31*%

%ADD32P,0.19505X4X200.0*%
%ADD33R,0.04343X0.03556*%
%ADD34R,0.08674X0.04343*%
G04:AMPARAMS|DCode=35|XSize=17.84mil|YSize=33.59mil|CornerRadius=6.46mil|HoleSize=0mil|Usage=FLASHONLY|Rotation=0.000|XOffset=0mil|YOffset=0mil|HoleType=Round|Shape=RoundedRectangle|*
%AMROUNDEDRECTD35*
21,1,0.01784,0.02067,0,0,0.0*
21,1,0.00492,0.03359,0,0,0.0*
1,1,0.01292,0.00246,-0.01034*
1,1,0.01292,-0.00246,-0.01034*
1,1,0.01292,-0.00246,0.01034*
1,1,0.01292,0.00246,0.01034*
%
%ADD35ROUNDEDRECTD35*%
%ADD36R,0.05131X0.04737*%
%ADD37R,0.03162X0.03950*%
%ADD38R,0.04800X0.05800*%
%ADD39C,0.05000*%
%ADD40C,0.04737*%
%ADD41C,0.06800*%
%ADD42C,0.06706*%
%ADD43R,0.06706X0.06706*%
%ADD44C,0.00787*%
G36*
X9530Y20580D02*
Y20391D01*
X9524D01*
Y20580D01*
X9530D01*
D02*
G37*
G36*
X12834D02*
Y20342D01*
X11493D01*
Y20580D01*
X12834D01*
D02*
G37*
G36*
X16160D02*
Y20433D01*
X13461D01*
Y20580D01*
X16160D01*
D02*
G37*
D28*
X12241Y13415D02*
D03*
X14209D02*
D03*
X10272D02*
D03*
X16178D02*
D03*
X10272Y19714D02*
D03*
X12241D02*
D03*
X14209D02*
D03*
X16178D02*
D03*
D29*
X10075Y15580D02*
D03*
Y17549D02*
D03*
X16375D02*
D03*
Y15580D02*
D03*
D30*
X19795Y-14984D02*
D03*
X20627Y-13200D02*
D03*
X21459Y-11416D02*
D03*
X22290Y-9632D02*
D03*
X23122Y-7848D02*
D03*
X23954Y-6064D02*
D03*
X24786Y-4280D02*
D03*
X25618Y-2496D02*
D03*
X7421Y5990D02*
D03*
X6589Y4206D02*
D03*
X5757Y2422D02*
D03*
X4925Y638D02*
D03*
X4093Y-1146D02*
D03*
X3261Y-2930D02*
D03*
X2429Y-4714D02*
D03*
X1597Y-6498D02*
D03*
D31*
X24095Y1690D02*
D03*
X22311Y2522D02*
D03*
X20527Y3354D02*
D03*
X18743Y4186D02*
D03*
X16958Y5018D02*
D03*
X15174Y5850D02*
D03*
X13390Y6682D02*
D03*
X11606Y7514D02*
D03*
X3121Y-10684D02*
D03*
X4905Y-11516D02*
D03*
X6689Y-12348D02*
D03*
X8473Y-13180D02*
D03*
X10257Y-14012D02*
D03*
X12041Y-14844D02*
D03*
X13825Y-15676D02*
D03*
X15609Y-16507D02*
D03*
D32*
X13608Y-4497D02*
D03*
D33*
X-11814Y-13945D02*
D03*
X-6696D02*
D03*
X-8798Y-18124D02*
D03*
X-3680D02*
D03*
X-1416Y15201D02*
D03*
X3702D02*
D03*
X890Y6731D02*
D03*
X-4228D02*
D03*
X-1042Y25504D02*
D03*
X4076D02*
D03*
X-4496Y-22971D02*
D03*
X622D02*
D03*
D34*
X-13315Y6297D02*
D03*
D35*
X-8394Y2065D02*
D03*
X-10362D02*
D03*
X-12331D02*
D03*
X-14299D02*
D03*
X-16268D02*
D03*
X-18236D02*
D03*
Y10530D02*
D03*
X-16268D02*
D03*
X-14299D02*
D03*
X-12331D02*
D03*
X-10362D02*
D03*
X-8394D02*
D03*
D36*
X-14408Y19975D02*
D03*
X-7715D02*
D03*
X-16341Y-3327D02*
D03*
X-9648D02*
D03*
X1783Y-81237D02*
D03*
X-4910D02*
D03*
D37*
X-15535Y15498D02*
D03*
X-10023D02*
D03*
D38*
X4024Y20560D02*
D03*
X-1276D02*
D03*
D39*
X22832Y18474D02*
D03*
X-23224Y-3781D02*
D03*
X14565Y-83350D02*
D03*
X-15874Y-83899D02*
D03*
D40*
X24671Y7347D02*
D03*
D41*
X-2345Y224D02*
D03*
X-22735Y8809D02*
D03*
D42*
X4778Y-67935D02*
D03*
X-5222D02*
D03*
X4778Y-57935D02*
D03*
X-5222D02*
D03*
X4778Y-47935D02*
D03*
D43*
X-5222D02*
D03*
D44*
X14825Y-29941D02*
D03*
X12920Y-30758D02*
D03*
X-19841Y-27082D02*
D03*
X18931Y-27488D02*
D03*
X17369Y-28502D02*
D03*
X11164Y-31424D02*
D03*
X9289Y-32029D02*
D03*
X6880Y-32681D02*
D03*
X3391Y-33168D02*
D03*
X-630Y-33373D02*
D03*
X-2476Y-33311D02*
D03*
X-5614Y-32925D02*
D03*
X-7955Y-32446D02*
D03*
X-10589Y-31674D02*
D03*
X-13062Y-30717D02*
D03*
X-15798Y-29516D02*
D03*
X-17877Y-28269D02*
D03*
M02*
